<?xml version="1.0" encoding="utf-8"?>
<!-- Generator: Adobe Illustrator 16.0.0, SVG Export Plug-In . SVG Version: 6.00 Build 0)  -->
<!DOCTYPE svg PUBLIC "-//W3C//DTD SVG 1.1//EN" "http://www.w3.org/Graphics/SVG/1.1/DTD/svg11.dtd">
<svg version="1.1" xmlns="http://www.w3.org/2000/svg" xmlns:xlink="http://www.w3.org/1999/xlink" x="0px" y="0px" width="100px"
	 height="100px" viewBox="0 0 100 100" enable-background="new 0 0 100 100" xml:space="preserve">
<symbol  id="New_Symbol" viewBox="-191.247 -31.876 573.741 63.753">
	<g>
		<polygon fill="#2F317C" points="-159.373,31.874 -191.247,-0.001 -159.373,0 		"/>
		<polygon fill="#00A4C4" points="-159.373,-31.876 -127.498,-0.001 -159.373,0 		"/>
		<polygon fill="#36AE4A" points="-159.373,0 -191.247,-0.001 -159.373,-31.876 		"/>
		<polygon fill="#F3CD13" points="-127.498,-0.001 -159.373,31.874 -159.373,0 		"/>
	</g>
	<g>
		<polygon fill="#F3CD13" points="-95.623,31.874 -127.498,-0.001 -95.623,0 		"/>
		<polygon fill="#36AE4A" points="-95.623,-31.876 -63.749,-0.001 -95.623,0 		"/>
		<polygon fill="#2F317C" points="-95.623,0 -127.498,-0.001 -95.623,-31.876 		"/>
		<polygon fill="#00A4C4" points="-63.749,-0.001 -95.623,31.874 -95.623,0 		"/>
	</g>
	<g>
		<polygon fill="#2F317C" points="95.624,31.875 63.749,0 95.624,0.001 		"/>
		<polygon fill="#00A4C4" points="95.624,-31.875 127.498,0 95.624,0.001 		"/>
		<polygon fill="#36AE4A" points="95.624,0.001 63.749,0 95.624,-31.875 		"/>
		<polygon fill="#F3CD13" points="127.498,0 95.624,31.875 95.624,0.001 		"/>
	</g>
	<g>
		<polygon fill="#2F317C" points="350.62,31.877 318.745,0.002 350.62,0.003 		"/>
		<polygon fill="#00A4C4" points="350.62,-31.873 382.494,0.002 350.62,0.003 		"/>
		<polygon fill="#36AE4A" points="350.62,0.003 318.745,0.002 350.62,-31.873 		"/>
		<polygon fill="#F3CD13" points="382.494,0.002 350.62,31.877 350.62,0.003 		"/>
	</g>
	<g>
		<polygon fill="#00A4C4" points="-31.874,31.874 -63.749,-0.001 -31.874,0 		"/>
		<polygon fill="#2F317C" points="-31.874,-31.876 0,-0.001 -31.874,0 		"/>
		<polygon fill="#F3CD13" points="-31.874,0 -63.749,-0.001 -31.874,-31.876 		"/>
		<polygon fill="#36AE4A" points="0,-0.001 -31.874,31.874 -31.874,0 		"/>
	</g>
	<g>
		<polygon fill="#00A4C4" points="223.122,31.874 191.247,-0.001 223.122,0 		"/>
		<polygon fill="#2F317C" points="223.123,-31.876 254.997,-0.001 223.122,0 		"/>
		<polygon fill="#F3CD13" points="223.122,0 191.247,-0.001 223.123,-31.876 		"/>
		<polygon fill="#36AE4A" points="254.997,-0.001 223.122,31.874 223.122,0 		"/>
	</g>
	<g>
		<polygon fill="#36AE4A" points="31.875,31.874 0,-0.001 31.875,0 		"/>
		<polygon fill="#F3CD13" points="31.875,-31.876 63.749,-0.001 31.875,0 		"/>
		<polygon fill="#00A4C4" points="31.875,0 0,-0.001 31.875,-31.876 		"/>
		<polygon fill="#2F317C" points="63.749,-0.001 31.875,31.874 31.875,0 		"/>
	</g>
	<g>
		<polygon fill="#36AE4A" points="286.871,31.874 254.997,-0.001 286.871,0 		"/>
		<polygon fill="#F3CD13" points="286.872,-31.876 318.745,-0.001 286.871,0 		"/>
		<polygon fill="#00A4C4" points="286.871,0 254.997,-0.001 286.872,-31.876 		"/>
		<polygon fill="#2F317C" points="318.745,-0.001 286.871,31.874 286.871,0 		"/>
	</g>
	<g>
		<polygon fill="#F3CD13" points="159.373,31.876 127.498,0.001 159.373,0.002 		"/>
		<polygon fill="#36AE4A" points="159.373,-31.874 191.247,0.001 159.373,0.002 		"/>
		<polygon fill="#2F317C" points="159.373,0.002 127.498,0.001 159.373,-31.874 		"/>
		<polygon fill="#00A4C4" points="191.247,0.001 159.373,31.876 159.373,0.002 		"/>
	</g>
</symbol>
<g id="_x31__1_">
</g>
<g id="_x32__1_">
</g>
<g id="_x33__1_">
</g>
<g id="_x31_">
</g>
<g id="有灵且美">
	<g id="bright_x26_beautiful" display="none">
	</g>
</g>
<g id="_x32_">
</g>
<g id="_x32_-0">
	<g id="kite">
	</g>
</g>
<g id="_x32_-1" display="none">
	<g id="kite_snap_1_" display="inline">
	</g>
</g>
<g id="_x33_">
	<g id="accidents">
	</g>
	<g id="child_labor">
	</g>
	<g id="prosititution">
	</g>
	<g id="dropout">
	</g>
	<g id="loneliness">
	</g>
	<g id="hand">
		<g id="Layer_19">
		</g>
	</g>
</g>
<g id="_x34_">
	<g id="Layer_23">
	</g>
	<g id="pulsera">
	</g>
</g>
<g id="nav">
</g>
<g id="_x35_">
	<g id="friends">
	</g>
</g>
<g id="_x36_">
	<g id="others" display="none">
	</g>
</g>
<g id="artboard-2">
</g>
<g id="artboard-3">
</g>
<g id="artboard-4">
	<g>
		<polygon fill-rule="evenodd" clip-rule="evenodd" fill="#E01173" points="60.783,49.489 31.323,25.142 52.184,71.492 		"/>
		<polygon fill-rule="evenodd" clip-rule="evenodd" fill="#00A4C4" points="56.575,50.174 16.864,74.858 35.154,73.109 
			52.199,71.48 		"/>
		<polygon fill-rule="evenodd" clip-rule="evenodd" fill="#36AE4A" points="76.557,44.055 83.136,50.702 64.955,47.619 		"/>
		<polygon fill-rule="evenodd" clip-rule="evenodd" fill="#F3CD13" points="56.48,50.23 52.195,71.484 76.559,44.048 		"/>
		<polygon fill-rule="evenodd" clip-rule="evenodd" fill="#07914B" points="76.561,44.055 64.855,47.677 72.266,48.91 		"/>
		<polygon fill-rule="evenodd" clip-rule="evenodd" fill="#F3CD13" points="56.56,50.199 18.16,42.155 40.866,59.936 		"/>
		<polygon fill-rule="evenodd" clip-rule="evenodd" fill="#2F317C" points="45.589,56.815 52.059,71.494 52.189,71.476 
			60.279,49.048 56.43,50.249 		"/>
		<polygon fill-rule="evenodd" clip-rule="evenodd" fill="#E21F26" points="56.613,50.171 41.089,46.932 45.657,56.987 		"/>
	</g>
</g>
</svg>
