<?xml version="1.0" encoding="utf-8"?>
<!-- Generator: Adobe Illustrator 16.0.0, SVG Export Plug-In . SVG Version: 6.00 Build 0)  -->
<!DOCTYPE svg PUBLIC "-//W3C//DTD SVG 1.1//EN" "http://www.w3.org/Graphics/SVG/1.1/DTD/svg11.dtd">
<svg version="1.1" xmlns="http://www.w3.org/2000/svg" xmlns:xlink="http://www.w3.org/1999/xlink" x="0px" y="0px" width="830px"
	 height="594.93px" viewBox="0 0 830 594.93" enable-background="new 0 0 830 594.93" xml:space="preserve">
<symbol  id="New_Symbol" viewBox="-191.247 -31.876 573.741 63.753">
	<g>
		<polygon fill="#2F317C" points="-159.373,31.874 -191.247,-0.001 -159.373,0 		"/>
		<polygon fill="#00A4C4" points="-159.373,-31.876 -127.498,-0.001 -159.373,0 		"/>
		<polygon fill="#36AE4A" points="-159.373,0 -191.247,-0.001 -159.373,-31.876 		"/>
		<polygon fill="#F3CD13" points="-127.498,-0.001 -159.373,31.874 -159.373,0 		"/>
	</g>
	<g>
		<polygon fill="#F3CD13" points="-95.623,31.874 -127.498,-0.001 -95.623,0 		"/>
		<polygon fill="#36AE4A" points="-95.623,-31.876 -63.749,-0.001 -95.623,0 		"/>
		<polygon fill="#2F317C" points="-95.623,0 -127.498,-0.001 -95.623,-31.876 		"/>
		<polygon fill="#00A4C4" points="-63.749,-0.001 -95.623,31.874 -95.623,0 		"/>
	</g>
	<g>
		<polygon fill="#2F317C" points="95.624,31.875 63.749,0 95.624,0.001 		"/>
		<polygon fill="#00A4C4" points="95.624,-31.875 127.498,0 95.624,0.001 		"/>
		<polygon fill="#36AE4A" points="95.624,0.001 63.749,0 95.624,-31.875 		"/>
		<polygon fill="#F3CD13" points="127.498,0 95.624,31.875 95.624,0.001 		"/>
	</g>
	<g>
		<polygon fill="#2F317C" points="350.62,31.877 318.745,0.002 350.62,0.003 		"/>
		<polygon fill="#00A4C4" points="350.62,-31.873 382.494,0.002 350.62,0.003 		"/>
		<polygon fill="#36AE4A" points="350.62,0.003 318.745,0.002 350.62,-31.873 		"/>
		<polygon fill="#F3CD13" points="382.494,0.002 350.62,31.877 350.62,0.003 		"/>
	</g>
	<g>
		<polygon fill="#00A4C4" points="-31.874,31.874 -63.749,-0.001 -31.874,0 		"/>
		<polygon fill="#2F317C" points="-31.874,-31.876 0,-0.001 -31.874,0 		"/>
		<polygon fill="#F3CD13" points="-31.874,0 -63.749,-0.001 -31.874,-31.876 		"/>
		<polygon fill="#36AE4A" points="0,-0.001 -31.874,31.874 -31.874,0 		"/>
	</g>
	<g>
		<polygon fill="#00A4C4" points="223.122,31.874 191.247,-0.001 223.122,0 		"/>
		<polygon fill="#2F317C" points="223.123,-31.876 254.997,-0.001 223.122,0 		"/>
		<polygon fill="#F3CD13" points="223.122,0 191.247,-0.001 223.123,-31.876 		"/>
		<polygon fill="#36AE4A" points="254.997,-0.001 223.122,31.874 223.122,0 		"/>
	</g>
	<g>
		<polygon fill="#36AE4A" points="31.875,31.874 0,-0.001 31.875,0 		"/>
		<polygon fill="#F3CD13" points="31.875,-31.876 63.749,-0.001 31.875,0 		"/>
		<polygon fill="#00A4C4" points="31.875,0 0,-0.001 31.875,-31.876 		"/>
		<polygon fill="#2F317C" points="63.749,-0.001 31.875,31.874 31.875,0 		"/>
	</g>
	<g>
		<polygon fill="#36AE4A" points="286.871,31.874 254.997,-0.001 286.871,0 		"/>
		<polygon fill="#F3CD13" points="286.872,-31.876 318.745,-0.001 286.871,0 		"/>
		<polygon fill="#00A4C4" points="286.871,0 254.997,-0.001 286.872,-31.876 		"/>
		<polygon fill="#2F317C" points="318.745,-0.001 286.871,31.874 286.871,0 		"/>
	</g>
	<g>
		<polygon fill="#F3CD13" points="159.373,31.876 127.498,0.001 159.373,0.002 		"/>
		<polygon fill="#36AE4A" points="159.373,-31.874 191.247,0.001 159.373,0.002 		"/>
		<polygon fill="#2F317C" points="159.373,0.002 127.498,0.001 159.373,-31.874 		"/>
		<polygon fill="#00A4C4" points="191.247,0.001 159.373,31.876 159.373,0.002 		"/>
	</g>
</symbol>
<g id="_x31__1_">
</g>
<g id="_x32__1_">
</g>
<g id="_x33__1_">
</g>
<g id="_x31_">
</g>
<g id="有灵且美">
	<g id="bright_x26_beautiful" display="none">
	</g>
</g>
<g id="_x32_">
</g>
<g id="_x32_-0">
	<g id="kite">
	</g>
</g>
<g id="_x32_-1" display="none">
	<g id="kite_snap_1_" display="inline">
	</g>
</g>
<g id="_x33_">
	<g id="accidents">
	</g>
	<g id="child_labor">
	</g>
	<g id="prosititution">
	</g>
	<g id="dropout">
	</g>
	<g id="loneliness">
	</g>
	<g id="hand">
		<g id="Layer_19">
		</g>
	</g>
</g>
<g id="_x34_">
	<g id="Layer_23">
	</g>
	<g id="pulsera">
	</g>
</g>
<g id="nav">
</g>
<g id="_x35_">
	<g id="friends">
	</g>
</g>
<g id="_x36_">
	<g id="others" display="none">
	</g>
</g>
<g id="artboard-2">
</g>
<g id="artboard-3">
</g>
<g id="artboard-4">
</g>
<g id="artboard-5">
</g>
<g id="artboard-6">
</g>
<g id="artboard-9">
</g>
<g id="artboard-10">
	<g>
		<g>
			<rect x="74.251" y="90.078" fill-rule="evenodd" clip-rule="evenodd" fill="#2F317C" width="681.498" height="414.773"/>
			
				<rect x="97.165" y="110.818" fill="none" stroke="#FFFFFF" stroke-width="2" stroke-miterlimit="10" width="635.67" height="373.295"/>
		</g>
		<text transform="matrix(1 0 0 1 249.0649 200.3066)"><tspan x="0" y="0" fill="#FFFFFF" font-family="'Futura-Medium'" font-size="36">Summer Arts Camp </tspan><tspan x="325.723" y="0" fill="#FFFFFF" font-family="'Futura-Medium'" font-size="26.7563"> </tspan><tspan x="-4.339" y="32.107" fill="#FFFFFF" font-family="'Futura-Medium'" font-size="26.7563">8 • 2015 | Yunan • China </tspan><tspan x="-53.495" y="96.322" fill="#FFFFFF" font-family="'Futura-Medium'" font-size="26.7563">Join us to make this journey possible</tspan></text>
		<text transform="matrix(1 0 0 1 230.7119 364.3066)" fill="#FFFFFF" font-family="'Futura-Medium'" font-size="26.7563">Volunteer</text>
		<rect x="225" y="328.535" fill="none" stroke="#FFFFFF" stroke-width="2" stroke-miterlimit="10" width="128.364" height="52"/>
		<text transform="matrix(1 0 0 1 470.063 364.3066)" fill="#FFFFFF" font-family="'Futura-Medium'" font-size="26.7563">Sponsor</text>
		
			<rect x="455.513" y="328.535" fill="none" stroke="#FFFFFF" stroke-width="2" stroke-miterlimit="10" width="128.364" height="52"/>
	</g>
</g>
</svg>
