<?xml version="1.0" encoding="utf-8"?>
<!-- Generator: Adobe Illustrator 16.0.0, SVG Export Plug-In . SVG Version: 6.00 Build 0)  -->
<!DOCTYPE svg PUBLIC "-//W3C//DTD SVG 1.1//EN" "http://www.w3.org/Graphics/SVG/1.1/DTD/svg11.dtd">
<svg version="1.1" id="Layer_1" xmlns="http://www.w3.org/2000/svg" xmlns:xlink="http://www.w3.org/1999/xlink" x="0px" y="0px"
	 width="198.39px" height="193px" viewBox="-41.035 -43.5 198.39 193" enable-background="new -41.035 -43.5 198.39 193"
	 xml:space="preserve">
<g id="_x31__1_">
</g>
<g id="_x32__1_">
</g>
<g id="_x33__1_">
</g>
<g id="_x31_">
</g>
<g id="有灵且美">
	<g id="bright_x26_beautiful" display="none">
	</g>
</g>
<g id="_x32_">
</g>
<g id="_x32_-0">
	<g id="kite">
	</g>
</g>
<g id="_x32_-1" display="none">
	<g id="kite_snap_1_" display="inline">
	</g>
</g>
<g id="_x33_">
	<g id="accidents">
	</g>
	<g id="child_labor">
	</g>
	<g id="prosititution">
	</g>
	<g id="dropout">
	</g>
	<g id="loneliness">
	</g>
	<g id="hand">
		<g id="Layer_19">
		</g>
	</g>
</g>
<g id="_x34_">
	<g id="Layer_23">
	</g>
	<g id="pulsera">
	</g>
</g>
<g id="nav">
</g>
<g id="_x35_">
	<g id="friends">
	</g>
</g>
<g id="_x36_">
	<g id="others" display="none">
	</g>
</g>
<g id="artboard-2">
</g>
<g id="artboard-3">
</g>
<g id="artboard-4">
</g>
<g id="artboard-5">
</g>
<g id="artboard-6">
</g>
<g id="artboard-9">
	<g>
		<g>
			<line fill="none" stroke="#FFFFFF" stroke-width="2" stroke-miterlimit="10" x1="38.568" y1="45.473" x2="56.662" y2="41.215"/>
			<polyline fill="none" stroke="#FFFFFF" stroke-width="2" stroke-miterlimit="10" points="79.568,45.473 56.662,41.215 
				72.568,15.473 			"/>
			<line fill="none" stroke="#FFFFFF" stroke-width="2" stroke-miterlimit="10" x1="56.662" y1="41.215" x2="45.068" y2="15.473"/>
			<ellipse fill="none" stroke="#FFFFFF" stroke-width="2" stroke-miterlimit="10" cx="57.216" cy="41.473" rx="6.352" ry="4"/>
		</g>
		<g>
			<g>
				<g enable-background="new    ">
					<g enable-background="new    ">
						<g>
							<defs>
								<path id="SVGID_1_" d="M3.592,41.963c-0.003-6.17,13.625-11.953,35.442-14.138l0.014,34.335
									C17.231,64.344,3.604,70.129,3.606,76.299C3.601,64.854,3.596,53.408,3.592,41.963z"/>
							</defs>
							<clipPath id="SVGID_2_">
								<use xlink:href="#SVGID_1_"  overflow="visible"/>
							</clipPath>
							<g clip-path="url(#SVGID_2_)">
								<g>
									<g>
										<path fill="#2F317C" d="M24.414,47.531c-0.007,5.193-0.018,10.385-0.021,15.578c-4.86-4.896-7.751-8.129-11.044-12.36
											C17.504,49.229,18.807,48.819,24.414,47.531"/>
										<path fill="#00A4C4" d="M38.958,45.336c-6.644,0.74-8.475,0.99-14.544,2.195c0.007-5.193,0.014-10.385,0.021-15.578
											C29,36.459,32.8,39.961,38.958,45.336"/>
										<path fill="#37AE4A" d="M24.436,31.953c-0.007,5.193-0.014,10.385-0.021,15.578c-5.276,1.224-6.691,1.604-11.066,3.218
											C16.807,43.677,19.708,38.758,24.436,31.953"/>
										<path fill="#F3CD13" d="M38.958,45.336c-6.01,6.474-9.821,11.125-14.565,17.773c0.007-5.193,0.015-10.385,0.021-15.578
											C30.169,46.4,31.911,46.111,38.958,45.336"/>
										<polyline fill="#2F317C" points="3.599,59.326 3.605,59.095 3.599,58.525 3.599,59.326 										"/>
										<polyline fill="#37AE4A" points="3.599,60.125 3.605,59.095 3.599,59.326 3.599,60.125 										"/>
										<path fill="#37AE4A" d="M6.249,54.699c-0.001,5.193-0.004,10.388-0.004,15.582c-1.776-4.273-2.468-7.201-2.64-11.188
											C3.98,57.184,4.23,56.641,6.249,54.699"/>
										<path fill="#F3CD13" d="M13.348,50.749c-3.691,1.589-4.63,2.065-7.099,3.95c0.001-5.193,0.004-10.387,0.004-15.581
											C8.131,43.243,9.987,46.287,13.348,50.749"/>
										<path fill="#00A4C4" d="M6.253,39.118c-0.001,5.194-0.001,10.388-0.004,15.581c-1.878,1.836-2.278,2.371-2.644,4.396
											C3.789,51.704,4.481,46.477,6.253,39.118"/>
										<path fill="#2F317C" d="M13.348,50.749c-3.383,7.256-5.242,12.367-7.104,19.532c0.001-5.194,0.002-10.389,0.004-15.582
											C8.608,52.922,9.413,52.427,13.348,50.749"/>
									</g>
								</g>
							</g>
						</g>
					</g>
					<g enable-background="new    ">
						<g>
							<defs>
								<path id="SVGID_3_" d="M109.978,76.254c-0.001-1.658-0.985-3.344-3.062-4.996c-9.799-7.797-40.185-11.869-67.867-9.098
									l-0.014-34.335c27.682-2.772,58.066,1.302,67.866,9.098c2.076,1.651,3.062,3.338,3.062,4.997
									C109.968,53.364,109.973,64.811,109.978,76.254z"/>
							</defs>
							<clipPath id="SVGID_4_">
								<use xlink:href="#SVGID_3_"  overflow="visible"/>
							</clipPath>
							<g clip-path="url(#SVGID_4_)">
								<g>
									<g>
										<path fill="#2F317C" d="M92.94,47.857c-0.007,5.189-0.015,10.377-0.02,15.565c-4.259-6.666-7.685-11.403-13.087-18.106
											C85.841,46.225,87.493,46.519,92.94,47.857"/>
										<path fill="#00A4C4" d="M102.985,51.457c-3.679-1.678-4.853-2.135-10.045-3.6c0.006-5.188,0.015-10.376,0.02-15.564
											C97.396,39.472,100.019,44.486,102.985,51.457"/>
										<path fill="#37AE4A" d="M92.959,32.293c-0.006,5.188-0.011,10.377-0.02,15.564c-5.166-1.258-6.732-1.588-13.105-2.541
											C85.754,39.676,89.066,36.39,92.959,32.293"/>
										<path fill="#F3CD13" d="M102.985,51.457c-2.521,3.465-4.977,6.533-10.064,11.966c0.006-5.188,0.014-10.376,0.02-15.565
											C97.825,49.248,99.119,49.676,102.985,51.457"/>
										<path fill="#F3CD13" d="M108.886,55.91c0,5.188,0.002,10.375,0,15.562c-1.118-6.216-2.441-11.482-5.9-20.017
											C104.979,52.553,108.397,54.59,108.886,55.91"/>
										<path fill="#37AE4A" d="M109.97,58.93l-0.002-5.412c-0.049-3.803-0.164-7.418-1.081-13.168
											c0,5.188-0.001,10.374-0.001,15.562C109.815,57.518,109.871,57.613,109.97,58.93"/>
										<path fill="#2F317C" d="M108.887,40.349c0,5.188-0.001,10.374-0.001,15.562c-1.736-1.984-2.382-2.541-5.9-4.453
											C106.58,46.304,107.833,43.577,108.887,40.349"/>
										<path fill="#00A4C4" d="M109.973,64.318c-0.001-1.797-0.001-3.592-0.002-5.389c-0.227-1.615-0.24-1.712-1.084-3.021
											c0,5.188,0.002,10.375,0,15.562C109.337,69.876,109.957,67.689,109.973,64.318"/>
									</g>
								</g>
							</g>
						</g>
					</g>
					<g enable-background="new    ">
						<g>
							<defs>
								<path id="SVGID_5_" d="M3.606,76.299c-0.005-11.445-0.01-22.891-0.014-34.336c0,1.659,0.986,3.346,3.062,4.997
									c9.801,7.796,40.186,11.87,67.867,9.099c21.817-2.186,35.445-7.969,35.442-14.139l0,0
									c0.004,11.444,0.009,22.891,0.014,34.334c0.002,6.17-13.625,11.955-35.441,14.139c-27.684,2.771-58.067-1.301-67.867-9.098
									C4.592,79.643,3.606,77.957,3.606,76.299z"/>
							</defs>
							<clipPath id="SVGID_6_">
								<use xlink:href="#SVGID_5_"  overflow="visible"/>
							</clipPath>
							<g clip-path="url(#SVGID_6_)">
								<g>
									<g>
										<path fill="#37AE4A" d="M109.675,60.514c0.179-2.496,0.277-3.869,0.292-6.996l0.002,5.412
											C109.904,59.408,109.825,60.055,109.675,60.514"/>
										<path fill="#00A4C4" d="M109.675,60.514c0.11-0.471,0.272-1.102,0.295-1.584c0.001,1.797,0.001,3.592,0.002,5.389
											c-0.028-1.172-0.049-2.099-0.229-3.346C109.722,60.834,109.669,60.652,109.675,60.514"/>
										<path fill="#2F317C" d="M53.583,74.095c0.014,5.191,0.025,10.382,0.042,15.573c6.82-6.546,10.911-10.596,16.207-16.047
											C62.942,74.049,60.951,74.13,53.583,74.095"/>
										<path fill="#00A4C4" d="M38.036,73.195c6.466,0.593,8.358,0.725,15.547,0.898c-0.015-5.189-0.029-10.381-0.042-15.572
											C48.394,63.438,43.204,68.305,38.036,73.195"/>
										<path fill="#37AE4A" d="M53.542,58.521c0.014,5.191,0.028,10.383,0.042,15.572c6.965,0.024,8.965-0.011,16.249-0.474
											C63.328,67.865,59.065,63.915,53.542,58.521"/>
										<path fill="#F3CD13" d="M38.036,73.195c4.559,5.19,8.57,9.551,15.589,16.473c-0.015-5.191-0.026-10.382-0.042-15.573
											C46.795,73.921,44.869,73.832,38.036,73.195"/>
										<path fill="#00A4C4" d="M105.668,64.874c0.006,5.188,0.015,10.375,0.02,15.563c2.258-7.433,3.302-12.646,3.987-19.924
											C108.695,62.427,108.276,62.968,105.668,64.874"/>
										<path fill="#2F317C" d="M97.348,68.707c4.185-1.523,5.271-1.982,8.32-3.833c-0.007-5.188-0.016-10.375-0.021-15.562
											C103.275,56.549,101.103,61.625,97.348,68.707"/>
										<path fill="#F3CD13" d="M105.647,49.312c0.007,5.188,0.014,10.375,0.021,15.562c2.438-1.806,3.002-2.335,4.007-4.36
											C108.966,56.484,107.912,53.553,105.647,49.312"/>
										<path fill="#37AE4A" d="M97.348,68.707c3.866,4.592,6.049,7.662,8.34,11.73c-0.006-5.188-0.015-10.377-0.02-15.563
											C102.759,66.618,101.801,67.1,97.348,68.707"/>
										<path fill="#00A4C4" d="M5.904,63.643c0.007,5.194,0.014,10.39,0.019,15.582c1.781-3.783,3.745-6.873,7.246-11.395
											C9.353,66.164,8.389,65.662,5.904,63.643"/>
										<path fill="#2F317C" d="M3.599,59.326v-0.801c0.06-2.65,0.29-5.864,2.288-10.465c0.006,5.194,0.012,10.389,0.017,15.583
											C4.526,62.165,3.694,61.273,3.599,59.326"/>
										<path fill="#F3CD13" d="M5.887,48.061c0.006,5.194,0.012,10.389,0.017,15.582c2.379,1.903,3.198,2.431,7.265,4.188
											C10.2,61.561,7.947,56.066,5.887,48.061"/>
										<path fill="#37AE4A" d="M3.599,60.125v-0.799c0.238,1.675,0.327,2.302,2.305,4.316c0.007,5.193,0.014,10.389,0.019,15.582
											C5.118,75.775,3.623,69.354,3.599,60.125"/>
										<path fill="#37AE4A" d="M85.206,71.723c0.012,5.188,0.023,10.377,0.037,15.566c5.137-6.812,8.305-11.674,12.104-18.582
											C92.699,70.155,91.261,70.541,85.206,71.723"/>
										<path fill="#F3CD13" d="M69.832,73.621c6.93-0.6,8.854-0.812,15.375-1.898c-0.014-5.188-0.024-10.379-0.037-15.566
											C79.544,63.38,76.015,67.197,69.832,73.621"/>
										<path fill="#00A4C4" d="M85.169,56.155c0.012,5.188,0.023,10.378,0.037,15.565c5.703-1.121,7.247-1.476,12.142-3.015
											C93.592,64.381,90.405,61.096,85.169,56.155"/>
										<path fill="#2F317C" d="M69.832,73.621c12.582,11.031,12.582,11.031,15.411,13.668C85.23,82.1,85.216,76.91,85.206,71.723
											C79.027,72.742,77.176,72.996,69.832,73.621"/>
										<path fill="#F3CD13" d="M24.222,71.062c0.012,5.191,0.024,10.385,0.035,15.578c3.594-3.656,6.712-6.738,13.779-13.445
											C31.785,72.471,30.052,72.229,24.222,71.062"/>
										<path fill="#37AE4A" d="M13.167,67.83c4.161,1.531,5.463,1.943,11.055,3.232c-0.011-5.193-0.022-10.386-0.034-15.578
											C19.288,60.538,16.404,63.77,13.167,67.83"/>
										<path fill="#2F317C" d="M24.188,55.484c0.013,5.192,0.024,10.385,0.034,15.578c5.527,1.094,7.188,1.375,13.813,2.133
											C32.303,66.543,28.68,61.908,24.188,55.484"/>
										<path fill="#00A4C4" d="M13.167,67.83c2.954,5.958,5.716,10.945,11.089,18.811c-0.012-5.192-0.024-10.386-0.035-15.578
											C18.959,69.838,17.546,69.457,13.167,67.83"/>
									</g>
								</g>
							</g>
						</g>
					</g>
				</g>
			</g>
		</g>
	</g>
</g>
</svg>
