<?xml version="1.0" encoding="utf-8"?>
<!-- Generator: Adobe Illustrator 16.0.0, SVG Export Plug-In . SVG Version: 6.00 Build 0)  -->
<!DOCTYPE svg PUBLIC "-//W3C//DTD SVG 1.1//EN" "http://www.w3.org/Graphics/SVG/1.1/DTD/svg11.dtd">
<svg version="1.1" id="Layer_1" xmlns="http://www.w3.org/2000/svg" xmlns:xlink="http://www.w3.org/1999/xlink" x="0px" y="0px"
	 width="198.395px" height="193px" viewBox="0 0 198.395 193" enable-background="new 0 0 198.395 193" xml:space="preserve">
<g id="artboard-9">
	<g display="none">
		<g display="inline">
			
				<line fill="none" stroke="#FFFFFF" stroke-width="2" stroke-miterlimit="10" x1="38.568" y1="132.473" x2="56.662" y2="128.215"/>
			<polyline fill="none" stroke="#FFFFFF" stroke-width="2" stroke-miterlimit="10" points="79.568,132.473 56.662,128.215 
				72.568,102.473 			"/>
			
				<line fill="none" stroke="#FFFFFF" stroke-width="2" stroke-miterlimit="10" x1="56.662" y1="128.215" x2="45.068" y2="102.473"/>
			<ellipse fill="none" stroke="#FFFFFF" stroke-width="2" stroke-miterlimit="10" cx="57.216" cy="128.473" rx="6.353" ry="4"/>
		</g>
		<g display="inline">
			<g>
				<g enable-background="new    ">
					<g enable-background="new    ">
						<g>
							<defs>
								<path id="SVGID_1_" d="M3.592,128.963c-0.003-6.17,13.625-11.953,35.442-14.138l0.014,34.335
									c-21.816,2.184-35.444,7.969-35.441,14.139C3.601,151.854,3.596,140.408,3.592,128.963z"/>
							</defs>
							<clipPath id="SVGID_2_">
								<use xlink:href="#SVGID_1_"  overflow="visible"/>
							</clipPath>
							<g clip-path="url(#SVGID_2_)">
								<g>
									<g>
										<path fill="#2F317C" d="M24.414,134.531c-0.007,5.193-0.017,10.385-0.021,15.578c-4.861-4.896-7.751-8.129-11.044-12.36
											C17.504,136.229,18.807,135.818,24.414,134.531"/>
										<path fill="#00A4C4" d="M38.958,132.336c-6.643,0.74-8.474,0.99-14.544,2.195c0.007-5.193,0.015-10.385,0.022-15.578
											C29,123.459,32.8,126.961,38.958,132.336"/>
										<path fill="#37AE4A" d="M24.436,118.953c-0.007,5.193-0.015,10.385-0.022,15.578c-5.275,1.224-6.69,1.604-11.065,3.218
											C16.807,130.677,19.708,125.758,24.436,118.953"/>
										<path fill="#F3CD13" d="M38.958,132.336c-6.01,6.475-9.82,11.125-14.564,17.773c0.007-5.193,0.014-10.385,0.021-15.578
											C30.169,133.4,31.911,133.111,38.958,132.336"/>
										<polyline fill="#2F317C" points="3.599,146.326 3.605,146.095 3.599,145.525 3.599,146.326 										"/>
										<polyline fill="#37AE4A" points="3.599,147.125 3.605,146.095 3.599,146.326 3.599,147.125 										"/>
										<path fill="#37AE4A" d="M6.249,141.699c-0.001,5.193-0.004,10.388-0.004,15.582c-1.776-4.273-2.467-7.201-2.639-11.188
											C3.98,144.184,4.23,143.641,6.249,141.699"/>
										<path fill="#F3CD13" d="M13.348,137.749c-3.692,1.589-4.631,2.065-7.1,3.95c0.001-5.193,0.004-10.387,0.004-15.581
											C8.131,130.243,9.987,133.287,13.348,137.749"/>
										<path fill="#00A4C4" d="M6.253,126.118c-0.001,5.194-0.001,10.388-0.004,15.581c-1.878,1.836-2.277,2.371-2.643,4.396
											C3.789,138.704,4.481,133.477,6.253,126.118"/>
										<path fill="#2F317C" d="M13.348,137.749c-3.384,7.256-5.242,12.367-7.104,19.532c0.001-5.194,0.002-10.389,0.004-15.582
											C8.608,139.922,9.413,139.427,13.348,137.749"/>
									</g>
								</g>
							</g>
						</g>
					</g>
					<g enable-background="new    ">
						<g>
							<defs>
								<path id="SVGID_3_" d="M109.978,163.254c-0.001-1.658-0.986-3.344-3.062-4.996c-9.799-7.797-40.184-11.869-67.867-9.098
									l-0.014-34.335c27.682-2.772,58.067,1.302,67.867,9.098c2.076,1.651,3.062,3.338,3.062,4.997
									C109.968,140.364,109.973,151.811,109.978,163.254z"/>
							</defs>
							<clipPath id="SVGID_4_">
								<use xlink:href="#SVGID_3_"  overflow="visible"/>
							</clipPath>
							<g clip-path="url(#SVGID_4_)">
								<g>
									<g>
										<path fill="#2F317C" d="M92.94,134.857c-0.007,5.188-0.016,10.377-0.021,15.564c-4.259-6.666-7.684-11.402-13.087-18.105
											C85.841,133.225,87.493,133.52,92.94,134.857"/>
										<path fill="#00A4C4" d="M102.985,138.457c-3.679-1.678-4.854-2.135-10.045-3.6c0.006-5.188,0.014-10.377,0.019-15.564
											C97.396,126.473,100.019,131.486,102.985,138.457"/>
										<path fill="#37AE4A" d="M92.959,119.293c-0.006,5.188-0.011,10.377-0.019,15.564c-5.166-1.258-6.733-1.588-13.106-2.541
											C85.754,126.676,89.066,123.391,92.959,119.293"/>
										<path fill="#F3CD13" d="M102.985,138.457c-2.522,3.465-4.978,6.533-10.065,11.966c0.006-5.188,0.015-10.376,0.021-15.565
											C97.825,136.248,99.119,136.676,102.985,138.457"/>
										<path fill="#F3CD13" d="M108.885,142.91c0,5.188,0.003,10.375,0,15.562c-1.117-6.216-2.44-11.482-5.899-20.017
											C104.979,139.553,108.397,141.59,108.885,142.91"/>
										<path fill="#37AE4A" d="M109.97,145.93l-0.003-5.412c-0.049-3.803-0.163-7.418-1.08-13.168
											c0,5.188-0.002,10.373-0.002,15.562C109.815,144.518,109.871,144.613,109.97,145.93"/>
										<path fill="#2F317C" d="M108.887,127.35c0,5.188-0.002,10.373-0.002,15.562c-1.735-1.984-2.382-2.541-5.899-4.453
											C106.58,133.305,107.833,130.577,108.887,127.35"/>
										<path fill="#00A4C4" d="M109.973,151.318c-0.001-1.797-0.001-3.592-0.002-5.39c-0.228-1.614-0.24-1.711-1.084-3.02
											c0,5.188,0.002,10.375,0,15.562C109.337,156.876,109.957,154.689,109.973,151.318"/>
									</g>
								</g>
							</g>
						</g>
					</g>
					<g enable-background="new    ">
						<g>
							<defs>
								<path id="SVGID_5_" d="M3.606,163.299c-0.005-11.445-0.01-22.891-0.015-34.336c0,1.659,0.986,3.346,3.062,4.997
									c9.8,7.796,40.185,11.87,67.867,9.099c21.816-2.186,35.444-7.969,35.441-14.139l0,0c0.004,11.444,0.01,22.891,0.015,34.334
									c0.002,6.17-13.625,11.955-35.442,14.139c-27.683,2.771-58.067-1.301-67.867-9.098
									C4.592,166.643,3.606,164.957,3.606,163.299z"/>
							</defs>
							<clipPath id="SVGID_6_">
								<use xlink:href="#SVGID_5_"  overflow="visible"/>
							</clipPath>
							<g clip-path="url(#SVGID_6_)">
								<g>
									<g>
										<path fill="#37AE4A" d="M109.675,147.514c0.18-2.496,0.277-3.869,0.292-6.996l0.002,5.412
											C109.904,146.408,109.825,147.055,109.675,147.514"/>
										<path fill="#00A4C4" d="M109.675,147.514c0.11-0.471,0.272-1.102,0.296-1.584c0.001,1.797,0.001,3.592,0.002,5.389
											c-0.028-1.172-0.05-2.099-0.23-3.346C109.722,147.834,109.669,147.652,109.675,147.514"/>
										<path fill="#2F317C" d="M53.583,161.095c0.015,5.191,0.026,10.382,0.042,15.573c6.821-6.546,10.911-10.596,16.207-16.047
											C62.942,161.049,60.951,161.13,53.583,161.095"/>
										<path fill="#00A4C4" d="M38.036,160.195c6.466,0.593,8.359,0.725,15.547,0.898c-0.014-5.189-0.028-10.381-0.042-15.572
											C48.394,150.438,43.204,155.305,38.036,160.195"/>
										<path fill="#37AE4A" d="M53.542,145.521c0.015,5.191,0.029,10.383,0.042,15.572c6.965,0.024,8.965-0.011,16.249-0.474
											C63.328,154.865,59.065,150.915,53.542,145.521"/>
										<path fill="#F3CD13" d="M38.036,160.195c4.56,5.19,8.571,9.551,15.589,16.473c-0.014-5.191-0.025-10.382-0.042-15.573
											C46.795,160.921,44.869,160.832,38.036,160.195"/>
										<path fill="#00A4C4" d="M105.668,151.874c0.006,5.188,0.016,10.375,0.021,15.563c2.258-7.433,3.301-12.646,3.986-19.924
											C108.695,149.427,108.276,149.968,105.668,151.874"/>
										<path fill="#2F317C" d="M97.348,155.707c4.184-1.523,5.27-1.982,8.319-3.833c-0.007-5.188-0.015-10.375-0.021-15.562
											C103.275,143.549,101.103,148.625,97.348,155.707"/>
										<path fill="#F3CD13" d="M105.647,136.312c0.007,5.188,0.013,10.375,0.021,15.562c2.438-1.806,3.002-2.335,4.007-4.36
											C108.966,143.484,107.912,140.553,105.647,136.312"/>
										<path fill="#37AE4A" d="M97.348,155.707c3.865,4.592,6.049,7.662,8.34,11.73c-0.006-5.188-0.016-10.377-0.021-15.563
											C102.759,153.618,101.801,154.1,97.348,155.707"/>
										<path fill="#00A4C4" d="M5.904,150.643c0.006,5.194,0.013,10.39,0.018,15.582c1.781-3.783,3.745-6.873,7.246-11.395
											C9.353,153.164,8.389,152.662,5.904,150.643"/>
										<path fill="#2F317C" d="M3.599,146.326v-0.801c0.059-2.65,0.29-5.864,2.288-10.465c0.006,5.193,0.012,10.389,0.017,15.582
											C4.526,149.165,3.694,148.273,3.599,146.326"/>
										<path fill="#F3CD13" d="M5.887,135.061c0.006,5.194,0.012,10.39,0.017,15.582c2.378,1.903,3.198,2.431,7.264,4.188
											C10.2,148.561,7.947,143.066,5.887,135.061"/>
										<path fill="#37AE4A" d="M3.599,147.125v-0.799c0.237,1.675,0.326,2.302,2.305,4.316
											c0.006,5.193,0.013,10.389,0.018,15.582C5.118,162.775,3.623,156.354,3.599,147.125"/>
										<path fill="#37AE4A" d="M85.206,158.723c0.012,5.188,0.024,10.377,0.037,15.566c5.137-6.812,8.305-11.674,12.105-18.582
											C92.699,157.155,91.26,157.541,85.206,158.723"/>
										<path fill="#F3CD13" d="M69.832,160.621c6.931-0.6,8.855-0.812,15.375-1.898c-0.013-5.188-0.023-10.379-0.037-15.566
											C79.544,150.38,76.015,154.197,69.832,160.621"/>
										<path fill="#00A4C4" d="M85.169,143.155c0.013,5.188,0.024,10.378,0.037,15.565c5.703-1.121,7.247-1.476,12.143-3.015
											C93.592,151.381,90.405,148.096,85.169,143.155"/>
										<path fill="#2F317C" d="M69.832,160.621c12.582,11.031,12.582,11.031,15.411,13.668
											c-0.012-5.189-0.026-10.379-0.037-15.566C79.027,159.742,77.176,159.996,69.832,160.621"/>
										<path fill="#F3CD13" d="M24.222,158.062c0.012,5.191,0.023,10.385,0.034,15.578c3.595-3.656,6.712-6.738,13.779-13.445
											C31.785,159.471,30.052,159.229,24.222,158.062"/>
										<path fill="#37AE4A" d="M13.167,154.83c4.161,1.531,5.463,1.943,11.056,3.232c-0.012-5.193-0.023-10.386-0.034-15.578
											C19.288,147.538,16.404,150.77,13.167,154.83"/>
										<path fill="#2F317C" d="M24.188,142.484c0.012,5.192,0.023,10.385,0.034,15.578c5.526,1.094,7.188,1.375,13.812,2.133
											C32.303,153.543,28.68,148.908,24.188,142.484"/>
										<path fill="#00A4C4" d="M13.167,154.83c2.954,5.958,5.716,10.945,11.089,18.811c-0.012-5.192-0.023-10.386-0.034-15.578
											C18.959,156.838,17.546,156.457,13.167,154.83"/>
									</g>
								</g>
							</g>
						</g>
					</g>
				</g>
			</g>
		</g>
	</g>
	<g id="Tshirt_2_" display="none">
		<g display="inline">
			<path fill="#FFFFFF" d="M48.701,94.971c0.47,0.158,0.934,0.318,1.398,0.479c0,27.391,0,54.776,0,82.243
				c34.171,0,67.45,0,101.852,0c0-27.536,0-54.362,0-82.729c4.852,5.281,8.607,9.367,12.489,13.588
				c10.177-7.918,19.812-15.416,29.898-23.264c-11.965-13.609-23.27-27.043-35.329-39.756c-2.893-3.049-8.157-4.562-12.573-5.262
				c-5.585-0.879-11.432-0.449-17.13-0.068c-1.805,0.119-4.178,1.453-5.146,2.967c-11.999,18.768-34.67,18.873-46.579,0.209
				c-0.983-1.549-3.218-2.967-5.036-3.211c-17.16-2.283-32.105,1.084-41.684,17.27c-0.51,0.859-1.363,1.514-2.028,2.287
				c-7.394,8.604-14.776,17.211-22.314,25.994c10.301,7.957,19.938,15.406,29.938,23.135
				C40.777,103.957,44.739,99.461,48.701,94.971z"/>
		</g>
		<g display="inline">
			<rect x="100.429" y="74.3" fill="#36AE4A" width="38.865" height="38.865"/>
			<polygon fill="#F3CD13" points="100.429,74.132 139.211,112.882 139.211,74.132 			"/>
			<polyline fill="#00A4C4" points="139.211,74.132 119.862,113.165 139.211,113.165 			"/>
			<polyline fill="#E01173" points="139.211,74.132 126.365,100.046 139.211,113.165 			"/>
		</g>
	</g>
	<g id="postcards_2_" display="none">
		
			<rect x="48.799" y="73.998" transform="matrix(-0.9397 0.342 -0.342 -0.9397 229.5169 176.5332)" display="inline" fill="#FFFFFF" width="100.794" height="69.005"/>
		
			<rect x="48.799" y="73.99" transform="matrix(-0.766 0.6428 -0.6428 -0.766 244.9179 127.8342)" display="inline" fill="#FFFFFF" width="100.79" height="69.003"/>
		
			<rect x="48.798" y="73.997" transform="matrix(-0.5 0.866 -0.866 -0.5 242.7536 76.8462)" display="inline" fill="#FFFFFF" width="100.79" height="69.004"/>
		<rect x="48.8" y="73.995" display="inline" fill="#FFFFFF" width="100.794" height="69.005"/>
		<g display="inline">
			<rect x="116.485" y="80.008" fill="#36AE4A" width="20.746" height="20.746"/>
			<polygon fill="#F3CD13" points="116.485,79.918 137.187,100.604 137.187,79.918 			"/>
			<polyline fill="#00A4C4" points="137.187,79.918 126.858,100.754 137.187,100.754 			"/>
			<polyline fill="#E01173" points="137.187,79.918 130.329,93.751 137.187,100.754 			"/>
		</g>
		<line display="inline" fill="none" stroke="#E01173" stroke-miterlimit="10" x1="62.287" y1="98.332" x2="108.787" y2="98.332"/>
		
			<line display="inline" fill="none" stroke="#E01173" stroke-miterlimit="10" x1="62.287" y1="106.754" x2="108.787" y2="106.754"/>
		
			<line display="inline" fill="none" stroke="#E01173" stroke-miterlimit="10" x1="62.287" y1="115.176" x2="108.787" y2="115.176"/>
		
			<line display="inline" fill="none" stroke="#E01173" stroke-miterlimit="10" x1="62.287" y1="123.598" x2="108.787" y2="123.598"/>
		<line display="inline" fill="none" stroke="#E01173" stroke-miterlimit="10" x1="62.287" y1="132.02" x2="108.787" y2="132.02"/>
	</g>
	<g>
		<rect x="64.249" y="79.612" fill="#36AE4A" width="69.896" height="69.895"/>
		<polygon fill="#F3CD13" points="64.249,79.31 133.995,148.997 133.995,79.31 		"/>
		<polyline fill="#00A4C4" points="133.995,79.31 99.197,149.507 133.995,149.507 		"/>
		<polyline fill="#E01173" points="133.995,79.31 110.892,125.913 133.995,149.507 		"/>
	</g>
	<g>
		<rect x="135.612" y="86.054" fill="#36AE4A" width="16.047" height="9.22"/>
		<polygon fill="#F3CD13" points="135.612,86.014 151.625,95.206 151.625,86.014 		"/>
		<polyline fill="#00A4C4" points="151.625,86.014 143.637,95.273 151.625,95.273 		"/>
		<polyline fill="#E01173" points="151.625,86.014 146.321,92.161 151.625,95.273 		"/>
	</g>
	<g>
		<path fill="#FFFFFF" d="M43.214,150.507V80.31h33.021l3.498-14.215h40.457l3.5,14.215h31.49v70.197H43.214L43.214,150.507z
			 M67.925,111.8c0,8.748,3.1,16.185,9.294,22.308c6.196,6.123,13.633,9.185,22.308,9.185s16.074-3.062,22.196-9.185
			c6.123-6.123,9.185-13.56,9.185-22.308c0-8.747-3.062-16.183-9.185-22.306C115.6,83.372,108.2,80.31,99.525,80.31
			s-16.11,3.062-22.308,9.185C71.023,95.617,67.925,103.053,67.925,111.8L67.925,111.8z M77.329,111.8
			c0-6.123,2.149-11.37,6.451-15.745c4.301-4.374,9.513-6.561,15.636-6.561s11.371,2.187,15.745,6.561
			c4.374,4.375,6.562,9.622,6.562,15.745s-2.188,11.335-6.562,15.636s-9.621,6.453-15.745,6.453c-6.123,0-11.336-2.15-15.636-6.453
			C79.479,123.135,77.329,117.923,77.329,111.8L77.329,111.8z M136.374,96.273h15.964v-9.185h-15.964V96.273z"/>
	</g>
</g>
</svg>
