<?xml version="1.0" encoding="utf-8"?>
<!-- Generator: Adobe Illustrator 16.0.0, SVG Export Plug-In . SVG Version: 6.00 Build 0)  -->
<!DOCTYPE svg PUBLIC "-//W3C//DTD SVG 1.1//EN" "http://www.w3.org/Graphics/SVG/1.1/DTD/svg11.dtd">
<svg version="1.1" xmlns="http://www.w3.org/2000/svg" xmlns:xlink="http://www.w3.org/1999/xlink" x="0px" y="0px"
	 width="192.792px" height="147.015px" viewBox="0 0 192.792 147.015" enable-background="new 0 0 192.792 147.015"
	 xml:space="preserve">
<symbol  id="New_Symbol" viewBox="-191.247 -31.876 573.741 63.753">
	<g>
		<polygon fill="#2F317C" points="-159.373,31.874 -191.247,-0.001 -159.373,0 		"/>
		<polygon fill="#00A4C4" points="-159.373,-31.876 -127.498,-0.001 -159.373,0 		"/>
		<polygon fill="#36AE4A" points="-159.373,0 -191.247,-0.001 -159.373,-31.876 		"/>
		<polygon fill="#F3CD13" points="-127.498,-0.001 -159.373,31.874 -159.373,0 		"/>
	</g>
	<g>
		<polygon fill="#F3CD13" points="-95.623,31.874 -127.498,-0.001 -95.623,0 		"/>
		<polygon fill="#36AE4A" points="-95.623,-31.876 -63.749,-0.001 -95.623,0 		"/>
		<polygon fill="#2F317C" points="-95.623,0 -127.498,-0.001 -95.623,-31.876 		"/>
		<polygon fill="#00A4C4" points="-63.749,-0.001 -95.623,31.874 -95.623,0 		"/>
	</g>
	<g>
		<polygon fill="#2F317C" points="95.624,31.875 63.749,0 95.624,0.001 		"/>
		<polygon fill="#00A4C4" points="95.624,-31.875 127.498,0 95.624,0.001 		"/>
		<polygon fill="#36AE4A" points="95.624,0.001 63.749,0 95.624,-31.875 		"/>
		<polygon fill="#F3CD13" points="127.498,0 95.624,31.875 95.624,0.001 		"/>
	</g>
	<g>
		<polygon fill="#2F317C" points="350.62,31.877 318.745,0.002 350.62,0.003 		"/>
		<polygon fill="#00A4C4" points="350.62,-31.873 382.494,0.002 350.62,0.003 		"/>
		<polygon fill="#36AE4A" points="350.62,0.003 318.745,0.002 350.62,-31.873 		"/>
		<polygon fill="#F3CD13" points="382.494,0.002 350.62,31.877 350.62,0.003 		"/>
	</g>
	<g>
		<polygon fill="#00A4C4" points="-31.874,31.874 -63.749,-0.001 -31.874,0 		"/>
		<polygon fill="#2F317C" points="-31.874,-31.876 0,-0.001 -31.874,0 		"/>
		<polygon fill="#F3CD13" points="-31.874,0 -63.749,-0.001 -31.874,-31.876 		"/>
		<polygon fill="#36AE4A" points="0,-0.001 -31.874,31.874 -31.874,0 		"/>
	</g>
	<g>
		<polygon fill="#00A4C4" points="223.122,31.874 191.247,-0.001 223.122,0 		"/>
		<polygon fill="#2F317C" points="223.123,-31.876 254.997,-0.001 223.122,0 		"/>
		<polygon fill="#F3CD13" points="223.122,0 191.247,-0.001 223.123,-31.876 		"/>
		<polygon fill="#36AE4A" points="254.997,-0.001 223.122,31.874 223.122,0 		"/>
	</g>
	<g>
		<polygon fill="#36AE4A" points="31.875,31.874 0,-0.001 31.875,0 		"/>
		<polygon fill="#F3CD13" points="31.875,-31.876 63.749,-0.001 31.875,0 		"/>
		<polygon fill="#00A4C4" points="31.875,0 0,-0.001 31.875,-31.876 		"/>
		<polygon fill="#2F317C" points="63.749,-0.001 31.875,31.874 31.875,0 		"/>
	</g>
	<g>
		<polygon fill="#36AE4A" points="286.871,31.874 254.997,-0.001 286.871,0 		"/>
		<polygon fill="#F3CD13" points="286.872,-31.876 318.745,-0.001 286.871,0 		"/>
		<polygon fill="#00A4C4" points="286.871,0 254.997,-0.001 286.872,-31.876 		"/>
		<polygon fill="#2F317C" points="318.745,-0.001 286.871,31.874 286.871,0 		"/>
	</g>
	<g>
		<polygon fill="#F3CD13" points="159.373,31.876 127.498,0.001 159.373,0.002 		"/>
		<polygon fill="#36AE4A" points="159.373,-31.874 191.247,0.001 159.373,0.002 		"/>
		<polygon fill="#2F317C" points="159.373,0.002 127.498,0.001 159.373,-31.874 		"/>
		<polygon fill="#00A4C4" points="191.247,0.001 159.373,31.876 159.373,0.002 		"/>
	</g>
</symbol>
<g id="_x31__1_">
</g>
<g id="_x32__1_">
</g>
<g id="_x33__1_">
</g>
<g id="_x31_">
</g>
<g id="有灵且美">
	<g id="bright_x26_beautiful" display="none">
	</g>
</g>
<g id="_x32_">
</g>
<g id="_x32_-0">
	<g id="kite">
	</g>
</g>
<g id="_x32_-1" display="none">
	<g id="kite_snap_1_" display="inline">
	</g>
</g>
<g id="_x33_">
	<g id="accidents">
	</g>
	<g id="child_labor">
	</g>
	<g id="prosititution">
	</g>
	<g id="dropout">
	</g>
	<g id="loneliness">
	</g>
	<g id="hand">
		<g id="Layer_19">
		</g>
	</g>
</g>
<g id="_x34_">
	<g id="Layer_23">
	</g>
	<g id="pulsera">
	</g>
</g>
<g id="nav">
</g>
<g id="_x35_">
	<g id="friends">
	</g>
</g>
<g id="_x36_">
	<g id="others" display="none">
	</g>
</g>
<g id="artboard-2">
</g>
<g id="artboard-3">
</g>
<g id="artboard-4">
</g>
<g id="artboard-5">
</g>
<g id="artboard-6">
	<path fill-rule="evenodd" clip-rule="evenodd" fill="#E01173" d="M108.537,39.098c-11.486,0-21.305,7.143-25.258,17.229
		c-2.072-1.243-4.498-1.957-7.09-1.957c-7.631,0-13.818,6.187-13.818,13.817c0,1.69,0.305,3.31,0.861,4.807H47.555
		c-9.604,0-17.461,7.858-17.461,17.462l0,0c0,9.604,7.857,17.461,17.461,17.461h84.135c1.129,0,2.234-0.11,3.305-0.318
		c1.268,0.208,2.568,0.318,3.895,0.318c13.146,0,23.811-10.664,23.811-23.813c0-13.148-10.664-23.811-23.811-23.811
		c-1.301,0-2.576,0.105-3.82,0.306C132.482,48.319,121.584,39.098,108.537,39.098z"/>
</g>
</svg>
