<?xml version="1.0" encoding="utf-8"?>
<!-- Generator: Adobe Illustrator 16.0.0, SVG Export Plug-In . SVG Version: 6.00 Build 0)  -->
<!DOCTYPE svg PUBLIC "-//W3C//DTD SVG 1.1//EN" "http://www.w3.org/Graphics/SVG/1.1/DTD/svg11.dtd">
<svg version="1.1" id="Layer_1" xmlns="http://www.w3.org/2000/svg" xmlns:xlink="http://www.w3.org/1999/xlink" x="0px" y="0px"
	 width="999px" height="164.958px" viewBox="0 0 999 164.958" enable-background="new 0 0 999 164.958" xml:space="preserve">
<g id="_x31__1_">
</g>
<g id="_x32__1_">
</g>
<g id="_x33__1_">
</g>
<g id="_x31_">
</g>
<g id="有灵且美">
	<g id="bright_x26_beautiful" display="none">
	</g>
</g>
<g id="_x32_">
</g>
<g id="_x32_-0" display="none">
	<g id="kite" display="inline">
	</g>
</g>
<g id="_x32_-1" display="none">
	<g id="kite_snap_1_" display="inline">
	</g>
</g>
<g id="_x33_">
	<g id="accidents">
	</g>
	<g id="child_labor">
	</g>
	<g id="prosititution">
	</g>
	<g id="dropout">
	</g>
	<g id="loneliness">
	</g>
	<g id="hand">
		<g id="Layer_19">
		</g>
	</g>
</g>
<g id="_x34_">
	<g id="Layer_23">
	</g>
	<g id="pulsera">
	</g>
</g>
<g id="nav">
</g>
<g id="_x35_">
	<g id="friends">
	</g>
</g>
<g id="_x36_">
	<g id="others" display="none">
	</g>
</g>
<g id="Layer_28">
	<path d="M999,152.958c0,6.627-6.058,12-13.531,12H13.53c-7.473,0-13.53-5.373-13.53-12v-50.664c0-6.629,6.058-12,13.53-12h971.938
		c7.475,0,13.531,5.371,13.531,12L999,152.958L999,152.958z"/>
	<circle fill="#F3CD13" cx="49.091" cy="127.626" r="17.477"/>
	<circle fill="#F3CD13" cx="113.689" cy="127.626" r="17.477"/>
	<circle fill="#F3CD13" cx="178.287" cy="127.626" r="17.477"/>
	<circle fill="#F3CD13" cx="242.884" cy="127.626" r="17.477"/>
	<circle fill="#F3CD13" cx="307.482" cy="127.626" r="17.477"/>
	<circle fill="#F3CD13" cx="372.08" cy="127.626" r="17.477"/>
	<circle fill="#F3CD13" cx="436.677" cy="127.626" r="17.477"/>
	<circle fill="#F3CD13" cx="501.275" cy="127.626" r="17.477"/>
	<circle fill="#F3CD13" cx="565.873" cy="127.626" r="17.477"/>
	<circle fill="#F3CD13" cx="630.471" cy="127.626" r="17.477"/>
	<circle fill="#F3CD13" cx="695.068" cy="127.626" r="17.477"/>
	<circle fill="#F3CD13" cx="759.666" cy="127.626" r="17.477"/>
	<circle fill="#F3CD13" cx="824.264" cy="127.626" r="17.477"/>
	<circle fill="#F3CD13" cx="888.861" cy="127.626" r="17.477"/>
	<circle fill="#F3CD13" cx="953.459" cy="127.626" r="17.477"/>
	<g>
		<rect x="70.042" width="87.295" height="87.293"/>
		<line fill="none" stroke="#F3CD13" stroke-width="2" stroke-miterlimit="10" x1="70.042" y1="0" x2="157.336" y2="87.293"/>
		<line fill="none" stroke="#F3CD13" stroke-width="2" stroke-miterlimit="10" x1="157.336" y1="0" x2="70.042" y2="87.293"/>
	</g>
	<g>
		<rect x="375.553" width="87.295" height="87.293"/>
		<line fill="none" stroke="#F3CD13" stroke-width="2" stroke-miterlimit="10" x1="375.553" y1="0" x2="462.848" y2="87.293"/>
		<line fill="none" stroke="#F3CD13" stroke-width="2" stroke-miterlimit="10" x1="462.848" y1="0" x2="375.553" y2="87.293"/>
	</g>
	<g>
		<rect x="698.542" width="87.295" height="87.293"/>
		<line fill="none" stroke="#F3CD13" stroke-width="2" stroke-miterlimit="10" x1="698.542" y1="0" x2="785.837" y2="87.293"/>
		<line fill="none" stroke="#F3CD13" stroke-width="2" stroke-miterlimit="10" x1="785.837" y1="0" x2="698.542" y2="87.293"/>
	</g>
</g>
</svg>
