<?xml version="1.0" encoding="utf-8"?>
<!-- Generator: Adobe Illustrator 16.0.0, SVG Export Plug-In . SVG Version: 6.00 Build 0)  -->
<!DOCTYPE svg PUBLIC "-//W3C//DTD SVG 1.1//EN" "http://www.w3.org/Graphics/SVG/1.1/DTD/svg11.dtd">
<svg version="1.1" xmlns="http://www.w3.org/2000/svg" xmlns:xlink="http://www.w3.org/1999/xlink" x="0px" y="0px"
	 width="281.987px" height="289.924px" viewBox="0 0 281.987 289.924" enable-background="new 0 0 281.987 289.924"
	 xml:space="preserve">
<symbol  id="New_Symbol" viewBox="-191.247 -31.876 573.741 63.753">
	<g>
		<polygon fill="#2F317C" points="-159.373,31.874 -191.247,-0.001 -159.373,0 		"/>
		<polygon fill="#00A4C4" points="-159.373,-31.876 -127.498,-0.001 -159.373,0 		"/>
		<polygon fill="#36AE4A" points="-159.373,0 -191.247,-0.001 -159.373,-31.876 		"/>
		<polygon fill="#F3CD13" points="-127.498,-0.001 -159.373,31.874 -159.373,0 		"/>
	</g>
	<g>
		<polygon fill="#F3CD13" points="-95.623,31.874 -127.498,-0.001 -95.623,0 		"/>
		<polygon fill="#36AE4A" points="-95.623,-31.876 -63.749,-0.001 -95.623,0 		"/>
		<polygon fill="#2F317C" points="-95.623,0 -127.498,-0.001 -95.623,-31.876 		"/>
		<polygon fill="#00A4C4" points="-63.749,-0.001 -95.623,31.874 -95.623,0 		"/>
	</g>
	<g>
		<polygon fill="#2F317C" points="95.624,31.875 63.749,0 95.624,0.001 		"/>
		<polygon fill="#00A4C4" points="95.624,-31.875 127.498,0 95.624,0.001 		"/>
		<polygon fill="#36AE4A" points="95.624,0.001 63.749,0 95.624,-31.875 		"/>
		<polygon fill="#F3CD13" points="127.498,0 95.624,31.875 95.624,0.001 		"/>
	</g>
	<g>
		<polygon fill="#2F317C" points="350.62,31.877 318.745,0.002 350.62,0.003 		"/>
		<polygon fill="#00A4C4" points="350.62,-31.873 382.494,0.002 350.62,0.003 		"/>
		<polygon fill="#36AE4A" points="350.62,0.003 318.745,0.002 350.62,-31.873 		"/>
		<polygon fill="#F3CD13" points="382.494,0.002 350.62,31.877 350.62,0.003 		"/>
	</g>
	<g>
		<polygon fill="#00A4C4" points="-31.874,31.874 -63.749,-0.001 -31.874,0 		"/>
		<polygon fill="#2F317C" points="-31.874,-31.876 0,-0.001 -31.874,0 		"/>
		<polygon fill="#F3CD13" points="-31.874,0 -63.749,-0.001 -31.874,-31.876 		"/>
		<polygon fill="#36AE4A" points="0,-0.001 -31.874,31.874 -31.874,0 		"/>
	</g>
	<g>
		<polygon fill="#00A4C4" points="223.122,31.874 191.247,-0.001 223.122,0 		"/>
		<polygon fill="#2F317C" points="223.123,-31.876 254.997,-0.001 223.122,0 		"/>
		<polygon fill="#F3CD13" points="223.122,0 191.247,-0.001 223.123,-31.876 		"/>
		<polygon fill="#36AE4A" points="254.997,-0.001 223.122,31.874 223.122,0 		"/>
	</g>
	<g>
		<polygon fill="#36AE4A" points="31.875,31.874 0,-0.001 31.875,0 		"/>
		<polygon fill="#F3CD13" points="31.875,-31.876 63.749,-0.001 31.875,0 		"/>
		<polygon fill="#00A4C4" points="31.875,0 0,-0.001 31.875,-31.876 		"/>
		<polygon fill="#2F317C" points="63.749,-0.001 31.875,31.874 31.875,0 		"/>
	</g>
	<g>
		<polygon fill="#36AE4A" points="286.871,31.874 254.997,-0.001 286.871,0 		"/>
		<polygon fill="#F3CD13" points="286.872,-31.876 318.745,-0.001 286.871,0 		"/>
		<polygon fill="#00A4C4" points="286.871,0 254.997,-0.001 286.872,-31.876 		"/>
		<polygon fill="#2F317C" points="318.745,-0.001 286.871,31.874 286.871,0 		"/>
	</g>
	<g>
		<polygon fill="#F3CD13" points="159.373,31.876 127.498,0.001 159.373,0.002 		"/>
		<polygon fill="#36AE4A" points="159.373,-31.874 191.247,0.001 159.373,0.002 		"/>
		<polygon fill="#2F317C" points="159.373,0.002 127.498,0.001 159.373,-31.874 		"/>
		<polygon fill="#00A4C4" points="191.247,0.001 159.373,31.876 159.373,0.002 		"/>
	</g>
</symbol>
<g id="_x31__1_">
</g>
<g id="_x32__1_">
</g>
<g id="_x33__1_">
</g>
<g id="_x31_">
</g>
<g id="有灵且美">
	<g id="bright_x26_beautiful" display="none">
	</g>
</g>
<g id="_x32_">
</g>
<g id="_x32_-0">
	<g id="kite">
	</g>
</g>
<g id="_x32_-1" display="none">
	<g id="kite_snap_1_" display="inline">
	</g>
</g>
<g id="_x33_">
	<g id="accidents">
	</g>
	<g id="child_labor">
	</g>
	<g id="prosititution">
	</g>
	<g id="dropout">
	</g>
	<g id="loneliness">
	</g>
	<g id="hand">
		<g id="Layer_19">
		</g>
	</g>
</g>
<g id="_x34_">
	<g id="Layer_23">
	</g>
	<g id="pulsera">
	</g>
</g>
<g id="nav">
</g>
<g id="_x35_">
	<g id="friends">
	</g>
</g>
<g id="_x36_">
	<g id="others" display="none">
	</g>
</g>
<g id="artboard-2">
</g>
<g id="artboard-3">
</g>
<g id="artboard-4">
</g>
<g id="artboard-5">
	<g>
		<g>
			<polygon points="138.221,258.49 143.585,237.072 145.695,228.65 138.221,228.65 			"/>
			<polygon points="138.221,228.65 130.747,228.65 132.856,237.072 168.957,252.736 138.221,228.65 			"/>
			<path d="M122.305,178.506v-2.758l31.833-0.051v2.809c0,7.162-4.799,13.26-11.339,15.238l0.374,0.646l19.329,0.031v-21.799
				c0-13.354-10.926-24.279-24.279-24.279c-13.355,0-24.28,10.926-24.28,24.279v21.719l19.338,0.031l0.364-0.629
				C127.103,191.766,122.305,185.668,122.305,178.506z"/>
			<path d="M151.852,209.424l17.575,6.51l-12.088-8.699l-11.553-8.316l-2.614-4.527l-0.374-0.646
				c-1.451,0.438-2.987,0.678-4.577,0.678c-1.589,0-3.125-0.24-4.577-0.678l-0.364,0.629l-3.023,5.238l-11.784,8.48l-12.088,8.701
				l17.747-6.574L113.49,228.65h17.256h7.474h0h7.474h17.256L151.852,209.424z M134.099,217.168c0,3.244-2.653,5.896-5.897,5.896
				s-5.897-2.652-5.897-5.896v-1.021l11.794-0.018V217.168z M148.24,223.064c-3.243,0-5.897-2.652-5.897-5.896v-1.021l11.794-0.018
				v1.039C154.137,220.412,151.483,223.064,148.24,223.064z"/>
			<path d="M154.137,178.506v-2.809l-31.833,0.051v2.758c0,7.162,4.798,13.26,11.339,15.238c1.451,0.438,2.987,0.678,4.577,0.678
				c1.59,0,3.126-0.24,4.577-0.678C149.338,191.766,154.137,185.668,154.137,178.506z"/>
			<path d="M122.305,216.146v1.021c0,3.244,2.653,5.896,5.897,5.896s5.897-2.652,5.897-5.896v-1.039"/>
			<path d="M142.343,216.146v1.021c0,3.244,2.654,5.896,5.897,5.896c3.244,0,5.897-2.652,5.897-5.896v-1.039L142.343,216.146z"/>
		</g>
		<g>
			<polygon points="221.231,223.102 212.79,192.934 205.315,192.934 			"/>
			<polygon points="205.315,192.934 197.841,192.934 199.951,201.357 205.315,222.773 205.315,192.934 			"/>
			<path d="M189.399,142.789v-2.756l31.833-0.053v2.809c0,7.164-4.799,13.26-11.339,15.238l0.374,0.646l19.329,0.031v-21.799
				c0-13.354-10.926-24.279-24.279-24.279c-13.355,0-24.28,10.928-24.28,24.279v21.721l19.338,0.031l0.364-0.631
				C194.197,156.049,189.399,149.953,189.399,142.789z"/>
			<path d="M218.946,173.709l25.714-7.008h-29.326l-5.068-8.027l-0.374-0.646c-1.451,0.439-2.987,0.678-4.577,0.678
				c-1.589,0-3.125-0.238-4.577-0.678l-0.364,0.631l-3.023,5.236l-11.784,8.482l-12.088,8.699l17.747-6.572l-10.641,18.43h17.256
				h7.474h0h7.474h17.256L218.946,173.709z M201.193,181.453c0,3.242-2.653,5.896-5.897,5.896s-5.897-2.654-5.897-5.896v-1.021
				l11.794-0.02V181.453z M215.334,187.35c-3.243,0-5.897-2.654-5.897-5.896v-1.021l11.794-0.02v1.041
				C221.231,184.695,218.578,187.35,215.334,187.35z"/>
			<path d="M221.231,142.789v-2.809l-31.833,0.053v2.756c0,7.164,4.798,13.26,11.339,15.238c1.451,0.439,2.987,0.678,4.577,0.678
				c1.59,0,3.126-0.238,4.577-0.678C216.433,156.049,221.231,149.953,221.231,142.789z"/>
			<path d="M189.399,180.432v1.021c0,3.242,2.653,5.896,5.897,5.896s5.897-2.654,5.897-5.896v-1.041"/>
			<path d="M209.437,180.432v1.021c0,3.242,2.654,5.896,5.897,5.896c3.244,0,5.897-2.654,5.897-5.896v-1.041L209.437,180.432z"/>
		</g>
		<g>
			<polygon points="111.621,151.666 103.179,121.498 95.705,121.498 			"/>
			<polygon points="95.704,121.498 88.23,121.498 90.34,129.92 95.705,151.338 95.705,121.498 			"/>
			<path d="M79.788,71.354v-2.758l31.833-0.051v2.809c0,7.162-4.799,13.26-11.339,15.238l0.374,0.646l19.329,0.031V65.471
				c0-13.354-10.926-24.279-24.279-24.279c-13.355,0-24.28,10.926-24.28,24.279v21.719l19.338,0.031l0.364-0.629
				C84.586,84.613,79.788,78.516,79.788,71.354z"/>
			<path d="M109.335,102.271l25.714-7.006h-29.326l-5.068-8.027l-0.374-0.646c-1.451,0.438-2.987,0.678-4.577,0.678
				c-1.589,0-3.125-0.24-4.577-0.678l-0.364,0.629l-3.023,5.238l-11.784,8.48l-12.088,8.701l17.747-6.574l-10.641,18.432H88.23
				h7.474h0h7.474h17.256L109.335,102.271z M91.583,110.016c0,3.244-2.653,5.896-5.897,5.896s-5.897-2.652-5.897-5.896v-1.021
				l11.794-0.018V110.016z M105.723,115.912c-3.243,0-5.897-2.652-5.897-5.896v-1.021l11.794-0.018v1.039
				C111.621,113.26,108.967,115.912,105.723,115.912z"/>
			<path d="M111.621,71.354v-2.809l-31.833,0.051v2.758c0,7.162,4.798,13.26,11.339,15.238c1.451,0.438,2.987,0.678,4.577,0.678
				c1.59,0,3.126-0.24,4.577-0.678C106.822,84.613,111.621,78.516,111.621,71.354z"/>
			<path d="M79.789,108.994v1.021c0,3.244,2.653,5.896,5.897,5.896s5.897-2.652,5.897-5.896v-1.039"/>
			<path d="M99.826,108.994v1.021c0,3.244,2.654,5.896,5.897,5.896c3.244,0,5.897-2.652,5.897-5.896v-1.039L99.826,108.994z"/>
		</g>
		<g>
			<polygon points="164.835,141.908 176.431,111.74 168.957,111.74 			"/>
			<polygon points="168.957,111.74 158.459,110.812 173.408,140.348 168.957,111.74 			"/>
			<path d="M153.041,61.596V58.84l31.833-0.053v2.809c0,7.164-4.799,13.26-11.339,15.238l0.374,0.646l19.329,0.031V55.713
				c0-13.354-10.926-24.279-24.279-24.279c-13.355,0-24.28,10.928-24.28,24.279v21.721l19.338,0.031l0.364-0.631
				C157.839,74.855,153.041,68.76,153.041,61.596z"/>
			<path d="M182.587,92.516l19.145,5.84l-22.756-12.848l-5.068-8.027l-0.374-0.646c-1.451,0.439-2.987,0.678-4.577,0.678
				c-1.589,0-3.125-0.238-4.577-0.678l-0.364,0.631l-3.023,5.236l-11.784,8.482l-12.088,8.699l17.747-6.572l-10.641,18.43h17.256
				h7.474h0h7.474h17.256L182.587,92.516z M164.835,100.26c0,3.242-2.653,5.896-5.897,5.896s-5.897-2.654-5.897-5.896v-1.021
				l11.794-0.02V100.26z M178.976,106.156c-3.243,0-5.897-2.654-5.897-5.896v-1.021l11.794-0.02v1.041
				C184.873,103.502,182.219,106.156,178.976,106.156z"/>
			<path d="M184.873,61.596v-2.809l-31.833,0.053v2.756c0,7.164,4.798,13.26,11.339,15.238c1.451,0.439,2.987,0.678,4.577,0.678
				c1.59,0,3.126-0.238,4.577-0.678C180.074,74.855,184.873,68.76,184.873,61.596z"/>
			<path d="M153.041,99.238v1.021c0,3.242,2.653,5.896,5.897,5.896s5.897-2.654,5.897-5.896v-1.041"/>
			<path d="M173.079,99.238v1.021c0,3.242,2.654,5.896,5.897,5.896c3.244,0,5.897-2.654,5.897-5.896v-1.041L173.079,99.238z"/>
		</g>
		<g>
			<polygon points="75.18,249.494 80.544,228.078 82.654,219.654 75.18,219.654 			"/>
			<polygon points="75.179,219.654 67.705,219.654 59.263,249.494 75.18,219.654 			"/>
			<path d="M59.263,169.51v-2.756l31.833-0.053v2.809c0,7.164-4.799,13.26-11.339,15.238l0.374,0.646l19.329,0.031v-21.799
				c0-13.354-10.926-24.279-24.279-24.279c-13.355,0-24.28,10.928-24.28,24.279v21.721l19.338,0.031l0.364-0.631
				C64.062,182.77,59.263,176.674,59.263,169.51z"/>
			<path d="M88.81,200.43l17.575,6.508l-12.088-8.699l-11.553-8.314l-2.614-4.529l-0.374-0.646
				c-1.451,0.439-2.987,0.678-4.577,0.678c-1.589,0-3.125-0.238-4.577-0.678l-0.364,0.631l-3.023,5.236l-11.784,8.482l-18.104,3.104
				l23.763-0.977l-10.641,18.43h17.256h7.474h0h7.474H99.91L88.81,200.43z M71.058,208.174c0,3.242-2.653,5.896-5.897,5.896
				s-5.897-2.654-5.897-5.896v-1.021l11.794-0.02V208.174z M85.198,214.07c-3.243,0-5.897-2.654-5.897-5.896v-1.021l11.794-0.02
				v1.041C91.096,211.416,88.442,214.07,85.198,214.07z"/>
			<path d="M91.096,169.51v-2.809l-31.833,0.053v2.756c0,7.164,4.798,13.26,11.339,15.238c1.451,0.439,2.987,0.678,4.577,0.678
				c1.59,0,3.126-0.238,4.577-0.678C86.297,182.77,91.096,176.674,91.096,169.51z"/>
			<path d="M59.264,207.152v1.021c0,3.242,2.653,5.896,5.897,5.896s5.897-2.654,5.897-5.896v-1.041"/>
			<path d="M79.301,207.152v1.021c0,3.242,2.654,5.896,5.897,5.896c3.244,0,5.897-2.654,5.897-5.896v-1.041L79.301,207.152z"/>
		</g>
		<g>
			<g>
				<polygon fill-rule="evenodd" clip-rule="evenodd" points="171.858,216.701 169.357,219.158 172.46,218.645 				"/>
				<polygon fill-rule="evenodd" clip-rule="evenodd" points="182.781,214.061 181.447,216.701 183.49,220.578 				"/>
				<polygon fill-rule="evenodd" clip-rule="evenodd" fill="#CCA62C" points="170.178,239.006 182.781,214.061 178.756,239.006 				
					"/>
				<polyline fill-rule="evenodd" clip-rule="evenodd" fill="#CCA62C" points="170.178,239.006 171.858,216.701 178.756,239.006 
									"/>
				<polygon fill-rule="evenodd" clip-rule="evenodd" fill="#E01173" points="170.156,239.01 162.429,213.775 178.756,239.006 				
					"/>
				<polygon fill-rule="evenodd" clip-rule="evenodd" fill="#2F317C" points="190.708,214.824 191.87,223.49 188.894,218.342 				
					"/>
				<polygon fill-rule="evenodd" clip-rule="evenodd" fill="#00A4C4" points="170.156,239.01 190.619,214.824 178.756,239.006 				
					"/>
				<polygon fill-rule="evenodd" clip-rule="evenodd" fill="#07914B" points="173.849,208.25 179.113,214.824 175.012,214.061 				
					"/>
				<polygon fill-rule="evenodd" clip-rule="evenodd" fill="#36AE4A" points="170.178,239.006 173.908,208.25 177.987,229.709 				
					"/>
				<polygon fill-rule="evenodd" clip-rule="evenodd" fill="#E21F26" points="162.429,222.223 162.362,213.586 164.885,217.904 				
					"/>
			</g>
			<rect x="170.178" y="239.006" fill="#FFFFFF" width="8.578" height="2.459"/>
		</g>
	</g>
</g>
<g id="artboard-6">
</g>
<g id="artboard-7">
</g>
</svg>
