<?xml version="1.0" encoding="utf-8"?>
<!-- Generator: Adobe Illustrator 16.0.0, SVG Export Plug-In . SVG Version: 6.00 Build 0)  -->
<!DOCTYPE svg PUBLIC "-//W3C//DTD SVG 1.1//EN" "http://www.w3.org/Graphics/SVG/1.1/DTD/svg11.dtd">
<svg version="1.1" xmlns="http://www.w3.org/2000/svg" xmlns:xlink="http://www.w3.org/1999/xlink" x="0px" y="0px"
	 width="294.872px" height="378.633px" viewBox="0 0 294.872 378.633" enable-background="new 0 0 294.872 378.633"
	 xml:space="preserve">
<g id="Layer_1" display="none">
	<g id="artboard-9" display="inline">
		<g id="parents_2_" display="none">
			<polyline display="inline" fill="#00A4C4" points="213.709,248.432 244.538,248.432 229.124,309.972 213.709,371.515 			"/>
			<polyline display="inline" fill="#2F317C" points="213.709,371.515 198.293,309.974 182.879,248.432 213.709,248.432 			"/>
			<polyline display="inline" fill="#36AE4A" points="80.329,250.402 111.157,250.402 95.743,311.945 80.329,373.486 			"/>
			<polyline display="inline" fill="#07914B" points="80.329,373.486 64.913,311.945 49.497,250.404 80.329,250.404 			"/>
			<polygon display="inline" fill="#F3CD13" points="80.327,288.085 25.552,288.085 52.938,238.208 80.327,188.332 107.714,238.208 
				135.103,288.085 			"/>
			<polygon display="inline" fill="#00A4C4" points="214.202,139.921 177.407,139.921 195.804,104.679 214.202,69.437 
				232.601,104.679 250.999,139.921 			"/>
			<path display="inline" d="M257.329,112.455l13.756-50.764c0-31.099-25.442-56.543-56.543-56.543l0,0
				c-31.1,0-56.543,25.445-56.543,56.543l11.312,50.764"/>
			<path display="inline" d="M136.87,238.208V96.295c0-31.099-25.443-56.544-56.543-56.544l0,0
				c-31.102,0-56.543,25.447-56.543,56.544v141.729"/>
			<polygon display="inline" fill="#2F317C" points="267.567,255.005 160.838,255.005 160.838,143.293 182.161,132.111 
				247.601,132.111 267.456,143.144 			"/>
		</g>
		<g id="girl_3_">
			<polyline fill="#07914B" points="139.627,271.475 164.611,271.475 152.12,321.352 139.627,371.229 			"/>
			<polyline fill="#7FBBE6" points="139.627,371.229 127.133,321.352 114.641,271.475 139.627,271.475 			"/>
			<polyline display="none" fill="#36AE4A" points="212.84,208.17 186.607,230.861 160.372,253.553 175.5,264.115 			"/>
			<polygon fill="#36AE4A" points="139.627,301.734 82.033,301.734 110.83,251.857 139.627,201.98 168.424,251.857 197.221,301.734 
							"/>
			<path d="M196.17,222.021v-50.765c0-31.099-25.443-56.544-56.543-56.544l0,0c-31.102,0-56.543,25.447-56.543,56.544v50.581"/>
		</g>
	</g>
</g>
<g id="Layer_2">
	<g>
		<g id="girl_8_">
			<polyline fill-rule="evenodd" clip-rule="evenodd" fill="#018F4B" points="140.169,271.732 165.154,271.732 152.662,321.609 
				140.169,371.486 			"/>
			<polyline fill-rule="evenodd" clip-rule="evenodd" fill="#80BAE5" points="140.169,371.486 127.675,321.609 115.182,271.732 
				140.169,271.732 			"/>
			<path fill-rule="evenodd" clip-rule="evenodd" d="M196.712,222.279v-50.765c0-31.099-25.443-56.544-56.543-56.544l0,0
				c-31.102,0-56.544,25.447-56.544,56.544v50.581"/>
		</g>
		<g>
			<path fill-rule="evenodd" clip-rule="evenodd" d="M196.712,222.279v-50.765c0-31.099-25.443-56.544-56.543-56.544l0,0
				c-31.102,0-56.544,25.447-56.544,56.544v50.581"/>
			<polygon fill-rule="evenodd" clip-rule="evenodd" fill="#35AD4A" points="140.168,301.992 82.575,301.992 111.373,252.115 
				140.168,202.238 168.966,252.115 197.763,301.992 			"/>
			<path fill-rule="evenodd" clip-rule="evenodd" fill="#DFB94F" d="M177.236,178.673v6.54c0,20.386-16.68,37.066-37.067,37.066l0,0
				c-20.388,0-37.066-16.682-37.066-37.066v-6.42"/>
			<path fill-rule="evenodd" clip-rule="evenodd" fill="#018F4B" d="M130.57,272.831v2.423c0,7.553-6.18,13.733-13.733,13.733l0,0
				c-7.554,0-13.733-6.181-13.733-13.733v-2.379"/>
			<path fill-rule="evenodd" clip-rule="evenodd" fill="#018F4B" d="M177.236,272.831v2.423c0,7.553-6.18,13.733-13.734,13.733l0,0
				c-7.554,0-13.733-6.181-13.733-13.733v-2.379"/>
		</g>
		<path fill="none" stroke="#EE3E71" stroke-width="3" stroke-miterlimit="10" d="M128.458,202.615
			c2.418,3.952,6.764,6.612,11.711,6.612s9.293-2.66,11.711-6.612"/>
		<polyline fill-rule="evenodd" clip-rule="evenodd" fill="#35AD4A" points="212.841,272.378 184.691,252.118 156.537,231.853 
			149.768,249.018 		"/>
		<polyline fill-rule="evenodd" clip-rule="evenodd" fill="#35AD4A" points="66.027,274.378 94.178,254.118 122.332,233.853 
			129.1,251.018 		"/>
	</g>
</g>
</svg>
