<?xml version="1.0" encoding="utf-8"?>
<!-- Generator: Adobe Illustrator 16.0.0, SVG Export Plug-In . SVG Version: 6.00 Build 0)  -->
<!DOCTYPE svg PUBLIC "-//W3C//DTD SVG 1.1//EN" "http://www.w3.org/Graphics/SVG/1.1/DTD/svg11.dtd">
<svg version="1.1" xmlns="http://www.w3.org/2000/svg" xmlns:xlink="http://www.w3.org/1999/xlink" x="0px" y="0px"
	 width="294.872px" height="378.633px" viewBox="0 0 294.872 378.633" enable-background="new 0 0 294.872 378.633"
	 xml:space="preserve">
<symbol  id="New_Symbol" viewBox="-191.247 -31.876 573.741 63.753">
	<g>
		<polygon fill="#2F317C" points="-159.373,31.874 -191.247,-0.001 -159.373,0 		"/>
		<polygon fill="#00A4C4" points="-159.373,-31.876 -127.498,-0.001 -159.373,0 		"/>
		<polygon fill="#36AE4A" points="-159.373,0 -191.247,-0.001 -159.373,-31.876 		"/>
		<polygon fill="#F3CD13" points="-127.498,-0.001 -159.373,31.874 -159.373,0 		"/>
	</g>
	<g>
		<polygon fill="#F3CD13" points="-95.623,31.874 -127.498,-0.001 -95.623,0 		"/>
		<polygon fill="#36AE4A" points="-95.623,-31.876 -63.749,-0.001 -95.623,0 		"/>
		<polygon fill="#2F317C" points="-95.623,0 -127.498,-0.001 -95.623,-31.876 		"/>
		<polygon fill="#00A4C4" points="-63.749,-0.001 -95.623,31.874 -95.623,0 		"/>
	</g>
	<g>
		<polygon fill="#2F317C" points="95.624,31.875 63.749,0 95.624,0.001 		"/>
		<polygon fill="#00A4C4" points="95.624,-31.875 127.498,0 95.624,0.001 		"/>
		<polygon fill="#36AE4A" points="95.624,0.001 63.749,0 95.624,-31.875 		"/>
		<polygon fill="#F3CD13" points="127.498,0 95.624,31.875 95.624,0.001 		"/>
	</g>
	<g>
		<polygon fill="#2F317C" points="350.62,31.877 318.745,0.002 350.62,0.003 		"/>
		<polygon fill="#00A4C4" points="350.62,-31.873 382.494,0.002 350.62,0.003 		"/>
		<polygon fill="#36AE4A" points="350.62,0.003 318.745,0.002 350.62,-31.873 		"/>
		<polygon fill="#F3CD13" points="382.494,0.002 350.62,31.877 350.62,0.003 		"/>
	</g>
	<g>
		<polygon fill="#00A4C4" points="-31.874,31.874 -63.749,-0.001 -31.874,0 		"/>
		<polygon fill="#2F317C" points="-31.874,-31.876 0,-0.001 -31.874,0 		"/>
		<polygon fill="#F3CD13" points="-31.874,0 -63.749,-0.001 -31.874,-31.876 		"/>
		<polygon fill="#36AE4A" points="0,-0.001 -31.874,31.874 -31.874,0 		"/>
	</g>
	<g>
		<polygon fill="#00A4C4" points="223.122,31.874 191.247,-0.001 223.122,0 		"/>
		<polygon fill="#2F317C" points="223.123,-31.876 254.997,-0.001 223.122,0 		"/>
		<polygon fill="#F3CD13" points="223.122,0 191.247,-0.001 223.123,-31.876 		"/>
		<polygon fill="#36AE4A" points="254.997,-0.001 223.122,31.874 223.122,0 		"/>
	</g>
	<g>
		<polygon fill="#36AE4A" points="31.875,31.874 0,-0.001 31.875,0 		"/>
		<polygon fill="#F3CD13" points="31.875,-31.876 63.749,-0.001 31.875,0 		"/>
		<polygon fill="#00A4C4" points="31.875,0 0,-0.001 31.875,-31.876 		"/>
		<polygon fill="#2F317C" points="63.749,-0.001 31.875,31.874 31.875,0 		"/>
	</g>
	<g>
		<polygon fill="#36AE4A" points="286.871,31.874 254.997,-0.001 286.871,0 		"/>
		<polygon fill="#F3CD13" points="286.872,-31.876 318.745,-0.001 286.871,0 		"/>
		<polygon fill="#00A4C4" points="286.871,0 254.997,-0.001 286.872,-31.876 		"/>
		<polygon fill="#2F317C" points="318.745,-0.001 286.871,31.874 286.871,0 		"/>
	</g>
	<g>
		<polygon fill="#F3CD13" points="159.373,31.876 127.498,0.001 159.373,0.002 		"/>
		<polygon fill="#36AE4A" points="159.373,-31.874 191.247,0.001 159.373,0.002 		"/>
		<polygon fill="#2F317C" points="159.373,0.002 127.498,0.001 159.373,-31.874 		"/>
		<polygon fill="#00A4C4" points="191.247,0.001 159.373,31.876 159.373,0.002 		"/>
	</g>
</symbol>
<g id="_x31__1_">
</g>
<g id="_x32__1_">
</g>
<g id="_x33__1_">
</g>
<g id="_x31_">
</g>
<g id="有灵且美">
	<g id="bright_x26_beautiful" display="none">
	</g>
</g>
<g id="_x32_">
</g>
<g id="_x32_-0">
	<g id="kite">
	</g>
</g>
<g id="_x32_-1">
	<g id="kite_snap_1_">
	</g>
</g>
<g id="_x33_">
	<g id="accidents">
	</g>
	<g id="child_labor">
	</g>
	<g id="prosititution">
	</g>
	<g id="dropout">
	</g>
	<g id="loneliness">
	</g>
	<g id="hand">
		<g id="Layer_19">
		</g>
	</g>
</g>
<g id="_x34_">
	<g id="Layer_23">
	</g>
	<g id="pulsera">
	</g>
</g>
<g id="nav">
</g>
<g id="_x35_">
	<g id="friends">
	</g>
</g>
<g id="_x36_">
	<g id="others" display="none">
	</g>
</g>
<g id="artboard-2">
</g>
<g id="artboard-3">
</g>
<g id="artboard-4">
</g>
<g id="artboard-5">
</g>
<g id="artboard-6">
</g>
<g id="artboard-7" display="none">
</g>
<g id="artboard-8">
</g>
<g id="artboard-9">
	<g id="parents_2_" display="none">
		<polyline display="inline" fill-rule="evenodd" clip-rule="evenodd" fill="#00A4C4" points="213.71,248.431 244.538,248.431 
			229.124,309.972 213.71,371.515 		"/>
		<polyline display="inline" fill-rule="evenodd" clip-rule="evenodd" fill="#2F317C" points="213.71,371.515 198.294,309.974 
			182.88,248.431 213.71,248.431 		"/>
		<polyline display="inline" fill-rule="evenodd" clip-rule="evenodd" fill="#36AE4A" points="80.329,250.402 111.157,250.402 
			95.743,311.945 80.329,373.486 		"/>
		<polyline display="inline" fill-rule="evenodd" clip-rule="evenodd" fill="#07914B" points="80.329,373.486 64.913,311.945 
			49.497,250.404 80.329,250.404 		"/>
		<polygon display="inline" fill-rule="evenodd" clip-rule="evenodd" fill="#F3CD13" points="80.327,288.085 25.552,288.085 
			52.938,238.208 80.327,188.332 107.714,238.208 135.103,288.085 		"/>
		<polygon display="inline" fill-rule="evenodd" clip-rule="evenodd" fill="#00A4C4" points="214.202,139.921 177.407,139.921 
			195.804,104.679 214.202,69.437 232.601,104.679 250.999,139.921 		"/>
		<path display="inline" fill-rule="evenodd" clip-rule="evenodd" d="M257.329,112.455l13.756-50.764
			c0-31.099-25.443-56.543-56.543-56.543l0,0c-31.1,0-56.543,25.445-56.543,56.543l11.312,50.764"/>
		<path display="inline" fill-rule="evenodd" clip-rule="evenodd" d="M136.87,238.208V96.295c0-31.099-25.443-56.544-56.543-56.544
			l0,0c-31.102,0-56.543,25.447-56.543,56.544v141.729"/>
		<polygon display="inline" fill-rule="evenodd" clip-rule="evenodd" fill="#2F317C" points="267.567,255.005 160.839,255.005 
			160.839,143.293 182.161,132.111 247.601,132.111 267.456,143.144 		"/>
	</g>
	<g id="girl_3_">
		<polyline fill-rule="evenodd" clip-rule="evenodd" fill="#07914B" points="139.627,271.475 164.611,271.475 152.119,321.352 
			139.627,371.229 		"/>
		<polyline fill-rule="evenodd" clip-rule="evenodd" fill="#7FBBE6" points="139.627,371.229 127.133,321.352 114.641,271.475 
			139.627,271.475 		"/>
		<polyline display="none" fill-rule="evenodd" clip-rule="evenodd" fill="#36AE4A" points="212.84,208.17 186.607,230.862 
			160.371,253.553 175.5,264.115 		"/>
		<polygon fill-rule="evenodd" clip-rule="evenodd" fill="#36AE4A" points="139.627,301.735 82.033,301.735 110.83,251.858 
			139.627,201.981 168.424,251.858 197.221,301.735 		"/>
		<path fill-rule="evenodd" clip-rule="evenodd" d="M196.17,222.022v-50.765c0-31.099-25.443-56.544-56.543-56.544l0,0
			c-31.102,0-56.543,25.447-56.543,56.544v50.581"/>
	</g>
</g>
<g>
</g>
</svg>
