<?xml version="1.0" encoding="utf-8"?>
<!-- Generator: Adobe Illustrator 16.0.0, SVG Export Plug-In . SVG Version: 6.00 Build 0)  -->
<!DOCTYPE svg PUBLIC "-//W3C//DTD SVG 1.1//EN" "http://www.w3.org/Graphics/SVG/1.1/DTD/svg11.dtd">
<svg version="1.1" id="Layer_2" xmlns="http://www.w3.org/2000/svg" xmlns:xlink="http://www.w3.org/1999/xlink" x="0px" y="0px"
	 width="294.872px" height="378.633px" viewBox="0 0 294.872 378.633" enable-background="new 0 0 294.872 378.633"
	 xml:space="preserve">
<g id="Layer_1" display="none">
	<g id="artboard-9" display="inline">
		<g id="parents_2_" display="none">
			<polyline display="inline" fill="#00A4C4" points="213.709,248.432 244.538,248.432 229.124,309.972 213.709,371.515 			"/>
			<polyline display="inline" fill="#2F317C" points="213.709,371.515 198.293,309.974 182.879,248.432 213.709,248.432 			"/>
			<polyline display="inline" fill="#36AE4A" points="80.329,250.402 111.157,250.402 95.743,311.945 80.329,373.486 			"/>
			<polyline display="inline" fill="#07914B" points="80.329,373.486 64.913,311.945 49.497,250.404 80.329,250.404 			"/>
			<polygon display="inline" fill="#F3CD13" points="80.327,288.085 25.552,288.085 52.938,238.208 80.327,188.332 107.714,238.208 
				135.103,288.085 			"/>
			<polygon display="inline" fill="#00A4C4" points="214.202,139.921 177.407,139.921 195.804,104.679 214.202,69.437 
				232.601,104.679 250.999,139.921 			"/>
			<path display="inline" d="M257.329,112.455l13.756-50.764c0-31.099-25.442-56.543-56.543-56.543l0,0
				c-31.1,0-56.543,25.445-56.543,56.543l11.312,50.764"/>
			<path display="inline" d="M136.87,238.208V96.295c0-31.099-25.443-56.544-56.543-56.544l0,0
				c-31.102,0-56.543,25.447-56.543,56.544v141.729"/>
			<polygon display="inline" fill="#2F317C" points="267.567,255.005 160.838,255.005 160.838,143.293 182.161,132.111 
				247.601,132.111 267.456,143.144 			"/>
		</g>
		<g id="girl_3_">
			<polyline fill="#07914B" points="139.627,271.475 164.611,271.475 152.12,321.352 139.627,371.229 			"/>
			<polyline fill="#7FBBE6" points="139.627,371.229 127.133,321.352 114.641,271.475 139.627,271.475 			"/>
			<polyline display="none" fill="#36AE4A" points="212.84,208.17 186.607,230.861 160.372,253.553 175.5,264.115 			"/>
			<polygon fill="#36AE4A" points="139.627,301.734 82.033,301.734 110.83,251.857 139.627,201.98 168.424,251.857 197.221,301.734 
							"/>
			<path d="M196.17,222.021v-50.765c0-31.099-25.443-56.544-56.543-56.544l0,0c-31.102,0-56.543,25.447-56.543,56.544v50.581"/>
		</g>
	</g>
</g>
<g>
	<g id="girl_1_">
		<polyline fill-rule="evenodd" clip-rule="evenodd" fill="#018F4B" points="139.999,271.773 164.983,271.773 152.491,321.65 
			139.999,371.527 		"/>
		<polyline fill-rule="evenodd" clip-rule="evenodd" fill="#80BAE5" points="139.999,371.527 127.505,321.65 115.013,271.773 
			139.999,271.773 		"/>
		<polygon fill-rule="evenodd" clip-rule="evenodd" fill="#35AD4A" points="139.999,302.033 82.405,302.033 111.202,252.156 
			139.999,202.279 168.795,252.156 197.592,302.033 		"/>
		<path fill-rule="evenodd" clip-rule="evenodd" d="M196.542,222.32v-50.765c0-31.099-25.443-56.544-56.542-56.544l0,0
			c-31.102,0-56.543,25.447-56.543,56.544v50.582"/>
	</g>
	<g>
		
			<rect x="19.036" y="294.2" transform="matrix(0.6292 0.7772 -0.7772 0.6292 273.337 88.3148)" fill="#231F20" width="50.134" height="72.9"/>
		
			<text transform="matrix(0.6292 0.7772 -0.7772 0.6292 15.394 332.1641)" fill="#F2CC13" font-family="'Stencil'" font-size="58.6333">$</text>
		<circle fill="#F2CC13" cx="66.73" cy="311.74" r="3.666"/>
		
			<ellipse transform="matrix(-0.4582 -0.8889 0.8889 -0.4582 -145.7842 514.5074)" fill="none" stroke="#231F20" stroke-width="2" stroke-miterlimit="10" cx="83.918" cy="301.686" rx="6.667" ry="19.685"/>
		<polygon fill-rule="evenodd" clip-rule="evenodd" fill="#35AD4A" points="82.405,302.033 89.11,290.418 95.815,278.805 
			103.81,291.408 		"/>
	</g>
</g>
</svg>
