<?xml version="1.0" encoding="utf-8"?>
<!-- Generator: Adobe Illustrator 16.0.0, SVG Export Plug-In . SVG Version: 6.00 Build 0)  -->
<!DOCTYPE svg PUBLIC "-//W3C//DTD SVG 1.1//EN" "http://www.w3.org/Graphics/SVG/1.1/DTD/svg11.dtd">
<svg version="1.1" xmlns="http://www.w3.org/2000/svg" xmlns:xlink="http://www.w3.org/1999/xlink" x="0px" y="0px"
	 width="940.276px" height="316.898px" viewBox="0 0 940.276 316.898" enable-background="new 0 0 940.276 316.898"
	 xml:space="preserve">
<symbol  id="New_Symbol" viewBox="-191.247 -31.876 573.741 63.753">
	<g>
		<polygon fill="#2F317C" points="-159.373,31.874 -191.247,-0.001 -159.373,0 		"/>
		<polygon fill="#00A4C4" points="-159.373,-31.876 -127.498,-0.001 -159.373,0 		"/>
		<polygon fill="#36AE4A" points="-159.373,0 -191.247,-0.001 -159.373,-31.876 		"/>
		<polygon fill="#F3CD13" points="-127.498,-0.001 -159.373,31.874 -159.373,0 		"/>
	</g>
	<g>
		<polygon fill="#F3CD13" points="-95.623,31.874 -127.498,-0.001 -95.623,0 		"/>
		<polygon fill="#36AE4A" points="-95.623,-31.876 -63.749,-0.001 -95.623,0 		"/>
		<polygon fill="#2F317C" points="-95.623,0 -127.498,-0.001 -95.623,-31.876 		"/>
		<polygon fill="#00A4C4" points="-63.749,-0.001 -95.623,31.874 -95.623,0 		"/>
	</g>
	<g>
		<polygon fill="#2F317C" points="95.624,31.875 63.749,0 95.624,0.001 		"/>
		<polygon fill="#00A4C4" points="95.624,-31.875 127.498,0 95.624,0.001 		"/>
		<polygon fill="#36AE4A" points="95.624,0.001 63.749,0 95.624,-31.875 		"/>
		<polygon fill="#F3CD13" points="127.498,0 95.624,31.875 95.624,0.001 		"/>
	</g>
	<g>
		<polygon fill="#2F317C" points="350.62,31.877 318.745,0.002 350.62,0.003 		"/>
		<polygon fill="#00A4C4" points="350.62,-31.873 382.494,0.002 350.62,0.003 		"/>
		<polygon fill="#36AE4A" points="350.62,0.003 318.745,0.002 350.62,-31.873 		"/>
		<polygon fill="#F3CD13" points="382.494,0.002 350.62,31.877 350.62,0.003 		"/>
	</g>
	<g>
		<polygon fill="#00A4C4" points="-31.874,31.874 -63.749,-0.001 -31.874,0 		"/>
		<polygon fill="#2F317C" points="-31.874,-31.876 0,-0.001 -31.874,0 		"/>
		<polygon fill="#F3CD13" points="-31.874,0 -63.749,-0.001 -31.874,-31.876 		"/>
		<polygon fill="#36AE4A" points="0,-0.001 -31.874,31.874 -31.874,0 		"/>
	</g>
	<g>
		<polygon fill="#00A4C4" points="223.122,31.874 191.247,-0.001 223.122,0 		"/>
		<polygon fill="#2F317C" points="223.123,-31.876 254.997,-0.001 223.122,0 		"/>
		<polygon fill="#F3CD13" points="223.122,0 191.247,-0.001 223.123,-31.876 		"/>
		<polygon fill="#36AE4A" points="254.997,-0.001 223.122,31.874 223.122,0 		"/>
	</g>
	<g>
		<polygon fill="#36AE4A" points="31.875,31.874 0,-0.001 31.875,0 		"/>
		<polygon fill="#F3CD13" points="31.875,-31.876 63.749,-0.001 31.875,0 		"/>
		<polygon fill="#00A4C4" points="31.875,0 0,-0.001 31.875,-31.876 		"/>
		<polygon fill="#2F317C" points="63.749,-0.001 31.875,31.874 31.875,0 		"/>
	</g>
	<g>
		<polygon fill="#36AE4A" points="286.871,31.874 254.997,-0.001 286.871,0 		"/>
		<polygon fill="#F3CD13" points="286.872,-31.876 318.745,-0.001 286.871,0 		"/>
		<polygon fill="#00A4C4" points="286.871,0 254.997,-0.001 286.872,-31.876 		"/>
		<polygon fill="#2F317C" points="318.745,-0.001 286.871,31.874 286.871,0 		"/>
	</g>
	<g>
		<polygon fill="#F3CD13" points="159.373,31.876 127.498,0.001 159.373,0.002 		"/>
		<polygon fill="#36AE4A" points="159.373,-31.874 191.247,0.001 159.373,0.002 		"/>
		<polygon fill="#2F317C" points="159.373,0.002 127.498,0.001 159.373,-31.874 		"/>
		<polygon fill="#00A4C4" points="191.247,0.001 159.373,31.876 159.373,0.002 		"/>
	</g>
</symbol>
<g id="_x31__1_">
</g>
<g id="_x32__1_">
</g>
<g id="_x33__1_">
</g>
<g id="_x31_">
</g>
<g id="有灵且美">
	<g id="bright_x26_beautiful" display="none">
	</g>
</g>
<g id="_x32_">
</g>
<g id="_x32_-0">
	<g id="kite">
	</g>
</g>
<g id="_x32_-1" display="none">
	<g id="kite_snap_1_" display="inline">
	</g>
</g>
<g id="_x33_">
	<g id="accidents">
	</g>
	<g id="child_labor">
	</g>
	<g id="prosititution">
	</g>
	<g id="dropout">
	</g>
	<g id="loneliness">
	</g>
	<g id="hand">
		<g id="Layer_19">
		</g>
	</g>
</g>
<g id="_x34_">
	<g id="Layer_23">
	</g>
	<g id="pulsera">
	</g>
</g>
<g id="nav">
</g>
<g id="_x35_">
	<g id="friends">
	</g>
</g>
<g id="_x36_">
	<g id="others" display="none">
	</g>
</g>
<g id="artboard-2">
</g>
<g id="artboard-3">
</g>
<g id="artboard-3_1_">
	<g>
		<g>
			<polygon fill="#07914B" points="103.84,286.707 116.332,236.83 121.245,217.213 103.84,217.213 			"/>
			<polygon fill="#7FBBE6" points="103.839,217.213 86.432,217.213 91.346,236.83 103.84,286.707 103.84,217.213 			"/>
			<path d="M66.772,100.434v-6.42l74.133-0.12v6.54c0,16.684-11.175,30.88-26.407,35.487l0.869,1.506l45.016,0.073V86.735
				c0-31.099-25.444-56.544-56.543-56.544c-31.102,0-56.544,25.447-56.544,56.544v50.581l45.036,0.073l0.848-1.469
				C77.946,131.313,66.772,117.117,66.772,100.434z"/>
			<path fill="#00A4C4" d="M135.582,172.439l40.93,15.159l-28.151-20.26l-26.904-19.366l-6.089-10.546l-0.869-1.506
				c-3.38,1.022-6.957,1.579-10.659,1.579s-7.279-0.557-10.659-1.579l-0.848,1.469l-7.041,12.195l-27.442,19.754l-28.151,20.26
				l41.33-15.308l-24.782,42.922h40.187h17.407h0.001h17.405h40.188L135.582,172.439z M94.24,190.475
				c0,7.553-6.18,13.733-13.733,13.733s-13.733-6.181-13.733-13.733v-2.379l27.467-0.044V190.475z M127.172,204.208
				c-7.554,0-13.733-6.181-13.733-13.733v-2.379l27.467-0.044v2.423C140.905,198.027,134.726,204.208,127.172,204.208z"/>
			<path fill="#E0BA50" d="M140.905,100.434v-6.54l-74.133,0.12v6.42c0,16.684,11.174,30.88,26.407,35.487
				c3.38,1.022,6.957,1.579,10.659,1.579s7.279-0.557,10.659-1.579C129.73,131.313,140.905,117.117,140.905,100.434z"/>
			<path fill="#FFFFFF" d="M66.773,188.096v2.379c0,7.553,6.18,13.733,13.733,13.733s13.733-6.181,13.733-13.733v-2.423
				L66.773,188.096z"/>
			<path fill="#FFFFFF" d="M113.438,188.096v2.379c0,7.553,6.18,13.733,13.733,13.733s13.733-6.181,13.733-13.733v-2.423
				L113.438,188.096z"/>
		</g>
		<g>
			<polygon fill="#07914B" points="250.653,286.707 263.146,236.83 268.059,217.213 250.653,217.213 			"/>
			<polygon fill="#7FBBE6" points="250.652,217.213 233.245,217.213 238.159,236.83 250.653,286.707 250.653,217.213 			"/>
			<path d="M213.586,100.434v-6.42l74.133-0.12v6.54c0,16.684-11.175,30.88-26.407,35.487l0.869,1.506l45.016,0.073V86.735
				c0-31.099-25.444-56.544-56.543-56.544c-31.102,0-56.544,25.447-56.544,56.544v50.581l45.036,0.073l0.848-1.469
				C224.76,131.313,213.586,117.117,213.586,100.434z"/>
			<path fill="#36AE4A" d="M282.396,172.439l40.93,15.159l-28.151-20.26l-26.904-19.366l-6.089-10.546l-0.869-1.506
				c-3.38,1.022-6.957,1.579-10.659,1.579s-7.279-0.557-10.659-1.579l-0.848,1.469l-7.041,12.195l-27.442,19.754l-28.151,20.26
				l41.33-15.308l-24.782,42.922h40.187h17.407h0.001h17.405h40.188L282.396,172.439z M241.054,190.475
				c0,7.553-6.18,13.733-13.733,13.733s-13.733-6.181-13.733-13.733v-2.379l27.467-0.044V190.475z M273.985,204.208
				c-7.554,0-13.733-6.181-13.733-13.733v-2.379l27.467-0.044v2.423C287.719,198.027,281.539,204.208,273.985,204.208z"/>
			<path fill="#E0BA50" d="M287.719,100.434v-6.54l-74.133,0.12v6.42c0,16.684,11.174,30.88,26.407,35.487
				c3.38,1.022,6.957,1.579,10.659,1.579s7.279-0.557,10.659-1.579C276.544,131.313,287.719,117.117,287.719,100.434z"/>
			<path fill="#FFFFFF" d="M213.587,188.096v2.379c0,7.553,6.18,13.733,13.733,13.733s13.733-6.181,13.733-13.733v-2.423
				L213.587,188.096z"/>
			<path fill="#FFFFFF" d="M260.252,188.096v2.379c0,7.553,6.18,13.733,13.733,13.733s13.733-6.181,13.733-13.733v-2.423
				L260.252,188.096z"/>
		</g>
		<g>
			<polygon fill="#07914B" points="397.467,286.707 409.959,236.83 414.872,217.213 397.467,217.213 			"/>
			<polygon fill="#7FBBE6" points="397.466,217.213 380.059,217.213 384.973,236.83 397.467,286.707 397.467,217.213 			"/>
			<path d="M360.399,100.434v-6.42l74.133-0.12v6.54c0,16.684-11.175,30.88-26.407,35.487l0.869,1.506l45.016,0.073V86.735
				c0-31.099-25.444-56.544-56.543-56.544c-31.102,0-56.544,25.447-56.544,56.544v50.581l45.036,0.073l0.848-1.469
				C371.573,131.313,360.399,117.117,360.399,100.434z"/>
			<path fill="#F3CD13" d="M429.209,172.439l40.93,15.159l-28.151-20.26l-26.904-19.366l-6.089-10.546l-0.869-1.506
				c-3.38,1.022-6.957,1.579-10.659,1.579s-7.279-0.557-10.659-1.579l-0.848,1.469l-7.041,12.195l-27.442,19.754l-28.151,20.26
				l41.33-15.308l-24.782,42.922h40.187h17.407h0.001h17.405h40.188L429.209,172.439z M387.867,190.475
				c0,7.553-6.18,13.733-13.733,13.733s-13.733-6.181-13.733-13.733v-2.379l27.467-0.044V190.475z M420.799,204.208
				c-7.554,0-13.733-6.181-13.733-13.733v-2.379l27.467-0.044v2.423C434.532,198.027,428.353,204.208,420.799,204.208z"/>
			<path fill="#E0BA50" d="M434.532,100.434v-6.54l-74.133,0.12v6.42c0,16.684,11.174,30.88,26.407,35.487
				c3.38,1.022,6.957,1.579,10.659,1.579s7.279-0.557,10.659-1.579C423.357,131.313,434.532,117.117,434.532,100.434z"/>
			<path fill="#FFFFFF" d="M360.4,188.096v2.379c0,7.553,6.18,13.733,13.733,13.733s13.733-6.181,13.733-13.733v-2.423
				L360.4,188.096z"/>
			<path fill="#FFFFFF" d="M407.065,188.096v2.379c0,7.553,6.18,13.733,13.733,13.733s13.733-6.181,13.733-13.733v-2.423
				L407.065,188.096z"/>
		</g>
		<g>
			<polygon fill="#07914B" points="544.28,286.707 556.772,236.83 561.686,217.213 544.28,217.213 			"/>
			<polygon fill="#7FBBE6" points="544.279,217.213 526.872,217.213 531.786,236.83 544.28,286.707 544.28,217.213 			"/>
			<path d="M507.213,100.434v-6.42l74.133-0.12v6.54c0,16.684-11.175,30.88-26.407,35.487l0.869,1.506l45.016,0.073V86.735
				c0-31.099-25.444-56.544-56.543-56.544c-31.102,0-56.544,25.447-56.544,56.544v50.581l45.036,0.073l0.848-1.469
				C518.387,131.313,507.213,117.117,507.213,100.434z"/>
			<path fill="#E01173" d="M576.022,172.439l40.93,15.159l-28.151-20.26l-26.904-19.366l-6.089-10.546l-0.869-1.506
				c-3.38,1.022-6.957,1.579-10.659,1.579s-7.279-0.557-10.659-1.579l-0.848,1.469l-7.041,12.195l-27.442,19.754l-28.151,20.26
				l41.33-15.308l-24.782,42.922h40.187h17.407h0.001h17.405h40.188L576.022,172.439z M534.681,190.475
				c0,7.553-6.18,13.733-13.733,13.733s-13.733-6.181-13.733-13.733v-2.379l27.467-0.044V190.475z M567.612,204.208
				c-7.554,0-13.733-6.181-13.733-13.733v-2.379l27.467-0.044v2.423C581.346,198.027,575.166,204.208,567.612,204.208z"/>
			<path fill="#E0BA50" d="M581.346,100.434v-6.54l-74.133,0.12v6.42c0,16.684,11.174,30.88,26.407,35.487
				c3.38,1.022,6.957,1.579,10.659,1.579s7.279-0.557,10.659-1.579C570.171,131.313,581.346,117.117,581.346,100.434z"/>
			<path fill="#FFFFFF" d="M507.214,188.096v2.379c0,7.553,6.18,13.733,13.733,13.733s13.733-6.181,13.733-13.733v-2.423
				L507.214,188.096z"/>
			<path fill="#FFFFFF" d="M553.879,188.096v2.379c0,7.553,6.18,13.733,13.733,13.733s13.733-6.181,13.733-13.733v-2.423
				L553.879,188.096z"/>
		</g>
		<g>
			<polygon fill="#07914B" points="691.094,286.707 703.586,236.83 708.499,217.213 691.094,217.213 			"/>
			<polygon fill="#7FBBE6" points="691.093,217.213 673.686,217.213 678.6,236.83 691.094,286.707 691.094,217.213 			"/>
			<path d="M654.026,100.434v-6.42l74.133-0.12v6.54c0,16.684-11.175,30.88-26.407,35.487l0.869,1.506l45.016,0.073V86.735
				c0-31.099-25.444-56.544-56.543-56.544c-31.102,0-56.544,25.447-56.544,56.544v50.581l45.036,0.073l0.848-1.469
				C665.2,131.313,654.026,117.117,654.026,100.434z"/>
			<path fill="#2F317C" d="M722.836,172.439l40.93,15.159l-28.151-20.26l-26.904-19.366l-6.089-10.546l-0.869-1.506
				c-3.38,1.022-6.957,1.579-10.659,1.579s-7.279-0.557-10.659-1.579l-0.848,1.469l-7.041,12.195l-27.442,19.754l-28.151,20.26
				l41.33-15.308l-24.782,42.922h40.187h17.407h0.001h17.405h40.188L722.836,172.439z M681.494,190.475
				c0,7.553-6.18,13.733-13.733,13.733s-13.733-6.181-13.733-13.733v-2.379l27.467-0.044V190.475z M714.426,204.208
				c-7.554,0-13.733-6.181-13.733-13.733v-2.379l27.467-0.044v2.423C728.159,198.027,721.979,204.208,714.426,204.208z"/>
			<path fill="#E0BA50" d="M728.159,100.434v-6.54l-74.133,0.12v6.42c0,16.684,11.174,30.88,26.407,35.487
				c3.38,1.022,6.957,1.579,10.659,1.579s7.279-0.557,10.659-1.579C716.984,131.313,728.159,117.117,728.159,100.434z"/>
			<path fill="#FFFFFF" d="M654.027,188.096v2.379c0,7.553,6.18,13.733,13.733,13.733s13.733-6.181,13.733-13.733v-2.423
				L654.027,188.096z"/>
			<path fill="#FFFFFF" d="M700.692,188.096v2.379c0,7.553,6.18,13.733,13.733,13.733s13.733-6.181,13.733-13.733v-2.423
				L700.692,188.096z"/>
		</g>
		<g>
			<polygon fill="#07914B" points="837.907,286.707 850.399,236.83 855.312,217.213 837.907,217.213 			"/>
			<polygon fill="#7FBBE6" points="837.906,217.213 820.499,217.213 825.413,236.83 837.907,286.707 837.907,217.213 			"/>
			<path d="M800.84,100.434v-6.42l74.133-0.12v6.54c0,16.684-11.175,30.88-26.407,35.487l0.869,1.506l45.016,0.073V86.735
				c0-31.099-25.444-56.544-56.543-56.544c-31.102,0-56.544,25.447-56.544,56.544v50.581l45.036,0.073l0.848-1.469
				C812.014,131.313,800.84,117.117,800.84,100.434z"/>
			<path fill="#E21F26" d="M869.649,172.439l40.93,15.159l-28.151-20.26l-26.904-19.366l-6.089-10.546l-0.869-1.506
				c-3.38,1.022-6.957,1.579-10.659,1.579s-7.279-0.557-10.659-1.579l-0.848,1.469l-7.041,12.195l-27.442,19.754l-28.151,20.26
				l41.33-15.308l-24.782,42.922h40.187h17.407h0.001h17.405H895.5L869.649,172.439z M828.308,190.475
				c0,7.553-6.18,13.733-13.733,13.733s-13.733-6.181-13.733-13.733v-2.379l27.467-0.044V190.475z M861.239,204.208
				c-7.554,0-13.733-6.181-13.733-13.733v-2.379l27.467-0.044v2.423C874.973,198.027,868.793,204.208,861.239,204.208z"/>
			<path fill="#E0BA50" d="M874.973,100.434v-6.54l-74.133,0.12v6.42c0,16.684,11.174,30.88,26.407,35.487
				c3.38,1.022,6.957,1.579,10.659,1.579s7.279-0.557,10.659-1.579C863.798,131.313,874.973,117.117,874.973,100.434z"/>
			<path fill="#FFFFFF" d="M800.841,188.096v2.379c0,7.553,6.18,13.733,13.733,13.733s13.733-6.181,13.733-13.733v-2.423
				L800.841,188.096z"/>
			<path fill="#FFFFFF" d="M847.506,188.096v2.379c0,7.553,6.18,13.733,13.733,13.733s13.733-6.181,13.733-13.733v-2.423
				L847.506,188.096z"/>
		</g>
	</g>
</g>
<g id="Layer_31">
</g>
</svg>
