<?xml version="1.0" encoding="utf-8"?>
<!-- Generator: Adobe Illustrator 16.0.0, SVG Export Plug-In . SVG Version: 6.00 Build 0)  -->
<!DOCTYPE svg PUBLIC "-//W3C//DTD SVG 1.1//EN" "http://www.w3.org/Graphics/SVG/1.1/DTD/svg11.dtd">
<svg version="1.1" id="Layer_1" xmlns="http://www.w3.org/2000/svg" xmlns:xlink="http://www.w3.org/1999/xlink" x="0px" y="0px"
	 width="488.976px" height="461.969px" viewBox="0 0 488.976 461.969" enable-background="new 0 0 488.976 461.969"
	 xml:space="preserve">
<g id="_x31__1_">
</g>
<g id="_x32__1_">
</g>
<g id="_x33__1_">
</g>
<g id="_x31_">
</g>
<g id="有灵且美">
	<g id="bright_x26_beautiful" display="none">
	</g>
</g>
<g id="_x32_">
</g>
<g id="_x32_-0">
	<g id="kite">
	</g>
</g>
<g id="_x32_-1" display="none">
	<g id="kite_snap_1_" display="inline">
	</g>
</g>
<g id="_x33_">
	<g id="accidents">
	</g>
	<g id="child_labor">
	</g>
	<g id="prosititution">
	</g>
	<g id="dropout">
	</g>
	<g id="loneliness">
	</g>
	<g id="hand">
		<g id="Layer_19">
		</g>
	</g>
</g>
<g id="_x34_">
	<g id="Layer_23">
	</g>
	<g id="pulsera">
	</g>
</g>
<g id="nav">
</g>
<g id="_x35_">
	<g id="friends">
	</g>
</g>
<g id="_x36_">
	<g id="others" display="none">
	</g>
</g>
<g id="artboard-2">
</g>
<g id="artboard-3">
	<g id="hand_2_">
		<path d="M215.322,0c8.869,9.587,50.362,53.126,61.055,59.169c40.587,22.935,91.805,27.545,133.78,47.648
			c9.567,4.583,6.42,10.076,9.567,20.786c12.221,41.548,30.349,82.584,42.489,124.155c1.827,6.267,2.507,13.634,1.35,20.016
			c-8.481,46.773-17.417,93.461-26.519,140.105c-4.413,22.615-4.716,22.549-26.199,18.301c-24.519-4.85-35.561-20.422-33.002-46.635
			c2.998-30.646,6.412-61.252,8.735-91.948c0.424-5.552-2.081-12.952-5.748-16.953c-12.499-13.644-25.925-26.388-39.475-38.903
			c-2.905-2.683-7.915-4.375-11.791-4.087c-13.942,1.031-27.843,2.882-41.687,4.953c-3.449,0.517-8.119,2.076-9.669,4.778
			c-5.763,10.052-11.463,20.148-9.133,33.197c2.642,14.789,2.862,30.088,5.932,44.748c4.775,22.791-10.332,43.5-34.78,42.678
			c-8.644-0.293-13.221-3.045-15.672-11.619c-5.597-19.582-11.535-39.062-17.563-58.506c-4.548-14.67-7.223-30.646-14.676-43.508
			c-13.9-23.988-20.81-48.967-18.917-76.722c0.497-7.246-2.1-11.195-8.287-14.061C153.23,152.1,23.902,5.399,11.988,0"/>
	</g>
	<g>
		<polyline fill="#CCA62C" points="460.604,242.139 416.91,111.4 377.215,163.607 460.604,242.139 		"/>
		<polygon fill="#F3CD13" points="416.91,111.4 396.935,137.711 438.758,176.77 		"/>
		<polygon points="416.91,111.4 406.488,125.165 438.758,176.77 		"/>
	</g>
	<g>
		<polygon fill="#CCA62C" points="243.999,301.393 215.322,313.346 224.975,340.288 240.458,342.045 250.71,331.266 
			240.458,342.045 253.466,343.522 		"/>
		<polygon fill="#F3CD13" points="240.458,342.045 224.975,340.288 226.358,353.389 253.466,343.522 		"/>
	</g>
	<g>
		<polygon fill="#CCA62C" points="445.411,369.27 425.604,373.901 435.456,422.729 		"/>
		<polyline fill="#F3CD13" points="425.604,373.901 422.623,409.325 435.456,422.729 		"/>
	</g>
</g>
</svg>
