<?xml version="1.0" encoding="utf-8"?>
<!-- Generator: Adobe Illustrator 16.0.0, SVG Export Plug-In . SVG Version: 6.00 Build 0)  -->
<!DOCTYPE svg PUBLIC "-//W3C//DTD SVG 1.1//EN" "http://www.w3.org/Graphics/SVG/1.1/DTD/svg11.dtd">
<svg version="1.1" xmlns="http://www.w3.org/2000/svg" xmlns:xlink="http://www.w3.org/1999/xlink" x="0px" y="0px"
	 width="138.17px" height="127.12px" viewBox="0 0 138.17 127.12" enable-background="new 0 0 138.17 127.12" xml:space="preserve">
<symbol  id="New_Symbol" viewBox="-191.247 -31.876 573.741 63.753">
	<g>
		<polygon fill="#2F317C" points="-159.373,31.874 -191.247,-0.001 -159.373,0 		"/>
		<polygon fill="#00A4C4" points="-159.373,-31.876 -127.498,-0.001 -159.373,0 		"/>
		<polygon fill="#36AE4A" points="-159.373,0 -191.247,-0.001 -159.373,-31.876 		"/>
		<polygon fill="#F3CD13" points="-127.498,-0.001 -159.373,31.874 -159.373,0 		"/>
	</g>
	<g>
		<polygon fill="#F3CD13" points="-95.623,31.874 -127.498,-0.001 -95.623,0 		"/>
		<polygon fill="#36AE4A" points="-95.623,-31.876 -63.749,-0.001 -95.623,0 		"/>
		<polygon fill="#2F317C" points="-95.623,0 -127.498,-0.001 -95.623,-31.876 		"/>
		<polygon fill="#00A4C4" points="-63.749,-0.001 -95.623,31.874 -95.623,0 		"/>
	</g>
	<g>
		<polygon fill="#2F317C" points="95.624,31.875 63.749,0 95.624,0.001 		"/>
		<polygon fill="#00A4C4" points="95.624,-31.875 127.498,0 95.624,0.001 		"/>
		<polygon fill="#36AE4A" points="95.624,0.001 63.749,0 95.624,-31.875 		"/>
		<polygon fill="#F3CD13" points="127.498,0 95.624,31.875 95.624,0.001 		"/>
	</g>
	<g>
		<polygon fill="#2F317C" points="350.62,31.877 318.745,0.002 350.62,0.003 		"/>
		<polygon fill="#00A4C4" points="350.62,-31.873 382.494,0.002 350.62,0.003 		"/>
		<polygon fill="#36AE4A" points="350.62,0.003 318.745,0.002 350.62,-31.873 		"/>
		<polygon fill="#F3CD13" points="382.494,0.002 350.62,31.877 350.62,0.003 		"/>
	</g>
	<g>
		<polygon fill="#00A4C4" points="-31.874,31.874 -63.749,-0.001 -31.874,0 		"/>
		<polygon fill="#2F317C" points="-31.874,-31.876 0,-0.001 -31.874,0 		"/>
		<polygon fill="#F3CD13" points="-31.874,0 -63.749,-0.001 -31.874,-31.876 		"/>
		<polygon fill="#36AE4A" points="0,-0.001 -31.874,31.874 -31.874,0 		"/>
	</g>
	<g>
		<polygon fill="#00A4C4" points="223.122,31.874 191.247,-0.001 223.122,0 		"/>
		<polygon fill="#2F317C" points="223.123,-31.876 254.997,-0.001 223.122,0 		"/>
		<polygon fill="#F3CD13" points="223.122,0 191.247,-0.001 223.123,-31.876 		"/>
		<polygon fill="#36AE4A" points="254.997,-0.001 223.122,31.874 223.122,0 		"/>
	</g>
	<g>
		<polygon fill="#36AE4A" points="31.875,31.874 0,-0.001 31.875,0 		"/>
		<polygon fill="#F3CD13" points="31.875,-31.876 63.749,-0.001 31.875,0 		"/>
		<polygon fill="#00A4C4" points="31.875,0 0,-0.001 31.875,-31.876 		"/>
		<polygon fill="#2F317C" points="63.749,-0.001 31.875,31.874 31.875,0 		"/>
	</g>
	<g>
		<polygon fill="#36AE4A" points="286.871,31.874 254.997,-0.001 286.871,0 		"/>
		<polygon fill="#F3CD13" points="286.872,-31.876 318.745,-0.001 286.871,0 		"/>
		<polygon fill="#00A4C4" points="286.871,0 254.997,-0.001 286.872,-31.876 		"/>
		<polygon fill="#2F317C" points="318.745,-0.001 286.871,31.874 286.871,0 		"/>
	</g>
	<g>
		<polygon fill="#F3CD13" points="159.373,31.876 127.498,0.001 159.373,0.002 		"/>
		<polygon fill="#36AE4A" points="159.373,-31.874 191.247,0.001 159.373,0.002 		"/>
		<polygon fill="#2F317C" points="159.373,0.002 127.498,0.001 159.373,-31.874 		"/>
		<polygon fill="#00A4C4" points="191.247,0.001 159.373,31.876 159.373,0.002 		"/>
	</g>
</symbol>
<g id="_x31__1_">
</g>
<g id="_x32__1_">
</g>
<g id="_x33__1_">
</g>
<g id="_x31_">
</g>
<g id="有灵且美">
	<g id="bright_x26_beautiful" display="none">
	</g>
</g>
<g id="_x32_">
</g>
<g id="_x32_-0">
	<g id="kite">
	</g>
</g>
<g id="_x32_-1" display="none">
	<g id="kite_snap_1_" display="inline">
	</g>
</g>
<g id="_x33_">
	<g id="accidents">
	</g>
	<g id="child_labor">
	</g>
	<g id="prosititution">
	</g>
	<g id="dropout">
	</g>
	<g id="loneliness">
	</g>
	<g id="hand">
		<g id="Layer_19">
		</g>
	</g>
</g>
<g id="_x34_">
	<g id="Layer_23">
	</g>
	<g id="pulsera">
	</g>
</g>
<g id="nav">
</g>
<g id="_x35_">
	<g id="friends">
	</g>
</g>
<g id="_x36_">
	<g id="others" display="none">
	</g>
</g>
<g id="artboard-2">
</g>
<g id="artboard-3">
</g>
<g id="artboard-4">
</g>
<g id="artboard-5">
</g>
<g id="artboard-6">
	<g id="lonely_1_">
		<g>
			<path d="M69.163,36.586l-0.078,70.593l33.531-22.059c13.345-9.199,16.738-27.647,7.54-40.993
				C100.955,30.779,82.508,27.388,69.163,36.586z"/>
		</g>
		<g>
			<path d="M69.007,36.586l0.078,70.593L35.554,85.12c-13.345-9.199-16.738-27.647-7.54-40.993
				C37.215,30.779,55.662,27.388,69.007,36.586z"/>
		</g>
		<g>
			<g>
				<polygon fill="#07914B" points="69.126,69.289 68.598,68.99 69.126,69.294 				"/>
				<polygon fill="#CCA62C" points="69.085,57.857 69.007,36.586 56.62,61.997 69.031,57.785 				"/>
				<polygon fill="#CCA62C" points="83.66,77.5 69.085,57.857 69.126,69.289 				"/>
				<polygon fill="#07914B" points="56.62,61.997 56.371,62.082 68.598,68.99 56.579,62.082 				"/>
				<polygon fill="#F3CD13" points="69.085,57.857 69.031,57.785 56.62,61.997 56.579,62.082 68.598,68.99 69.126,69.289 				"/>
			</g>
			<g>
				<polygon fill="#CCA62C" points="69.126,57.785 69.117,69.287 83.66,77.644 				"/>
				<polygon fill="#F3CD13" points="83.66,77.644 69.117,69.287 69.085,107.179 				"/>
			</g>
		</g>
	</g>
	<g display="none">
		<g display="inline">
			<polygon points="91.085,19.56 85.752,19.56 25.085,19.56 25.085,107.56 113.085,107.56 113.085,49.192 91.085,49.192 			"/>
			<polygon fill="#CCA62C" points="91.085,49.192 113.085,49.192 91.085,19.56 			"/>
		</g>
		<g display="inline">
			
				<text transform="matrix(0.9765 -0.2153 0.2153 0.9765 47.5942 48.7744)" fill="#F3CD13" font-family="'Futura-Medium'" font-size="21">59</text>
			
				<text transform="matrix(0.9765 -0.2153 0.2153 0.9765 47.5942 74.7744)" fill="#F3CD13" font-family="'Futura-Medium'" font-size="21">100</text>
			<line fill="none" stroke="#F3CD13" stroke-width="2" stroke-miterlimit="10" x1="40.929" y1="53.747" x2="83.596" y2="43.882"/>
		</g>
	</g>
	<g display="none">
		<rect x="44.018" y="34.58" display="inline" width="50.135" height="72.9"/>
		<text transform="matrix(1 0 0 1 52.2368 94.3496)" display="inline" fill="#F3CD13" font-family="'Stencil'" font-size="58.6333">$</text>
		
			<ellipse transform="matrix(-0.9791 -0.2032 0.2032 -0.9791 137.3145 57.8157)" display="inline" fill="none" stroke="#000000" stroke-width="2" stroke-miterlimit="10" cx="71.625" cy="21.859" rx="6.666" ry="19.685"/>
	</g>
	<g display="none">
		<rect x="25.438" y="19.913" display="inline" width="87.295" height="87.294"/>
		
			<line display="inline" fill="none" stroke="#F3CD13" stroke-width="2" stroke-miterlimit="10" x1="25.438" y1="19.913" x2="112.732" y2="107.207"/>
		
			<line display="inline" fill="none" stroke="#F3CD13" stroke-width="2" stroke-miterlimit="10" x1="112.732" y1="19.913" x2="25.438" y2="107.207"/>
	</g>
	<g id="car_2_" display="none">
		<path display="inline" fill-rule="evenodd" clip-rule="evenodd" d="M40.749,90.156c0,2.362,0.002,4.66,0,6.957
			c-0.008,5.046-3.287,9.21-8.188,10.404c-6.556,1.596-13.014-3.436-13.047-10.177c-0.013-2.382-0.003-4.765-0.003-7.246
			c-1.624,0-3.178,0.002-4.731-0.002c-1.768-0.002-2.348-0.57-2.348-2.318c-0.003-6.813-0.004-13.629,0-20.443
			c0.003-7.218,5.33-12.576,12.547-12.629c0.44-0.003,0.881,0,1.386,0c0.667-2.654,1.324-5.272,1.986-7.891
			c1.355-5.366,2.641-10.751,4.09-16.091c1.576-5.805,7.356-10.599,13.372-11.262c0.904-0.1,1.82-0.153,2.731-0.154
			c13.777-0.01,27.554-0.006,41.331-0.008c7.836-0.001,14.3,5.032,16.193,12.611c1.834,7.34,3.671,14.68,5.507,22.019
			c0.058,0.228,0.135,0.452,0.198,0.662c1.412,0.128,2.842,0.115,4.205,0.409c5.665,1.222,9.646,6.008,9.716,11.806
			c0.086,7.079,0.027,14.161,0.018,21.24c-0.001,1.399-0.666,2.034-2.085,2.047c-1.62,0.015-3.24,0.003-4.99,0.003
			c0,0.351,0.005,0.661-0.001,0.971c-0.051,2.621,0.088,5.264-0.196,7.859c-0.597,5.445-6.218,9.599-11.644,8.801
			c-5.724-0.842-9.392-5.088-9.396-10.881c-0.002-2.209,0-4.417,0-6.688C78.52,90.156,59.688,90.156,40.749,90.156z M40.986,54.654
			c18.794,0,37.452,0,56.148,0c-0.049-0.284-0.075-0.518-0.132-0.744c-1.527-6.135-3.057-12.269-4.588-18.402
			c-0.338-1.351-1.26-2.06-2.681-2.06c-13.774-0.001-27.551-0.001-41.325,0c-1.456,0-2.335,0.713-2.693,2.151
			c-0.868,3.48-1.747,6.958-2.611,10.44C42.395,48.891,41.7,51.746,40.986,54.654z M30.111,63.541
			c-4.877,0.008-8.824,3.941-8.835,8.803c-0.011,4.965,3.96,8.932,8.916,8.912c4.855-0.021,8.783-3.979,8.792-8.861
			C38.994,67.489,35.029,63.534,30.111,63.541z M99.165,72.332c-0.015,4.94,3.899,8.894,8.836,8.923
			c4.834,0.029,8.847-3.953,8.872-8.806c0.025-4.862-3.939-8.896-8.755-8.908C103.154,63.529,99.18,67.431,99.165,72.332z"/>
		<path display="inline" fill-rule="evenodd" clip-rule="evenodd" fill="#F3CD13" d="M40.986,54.654
			c0.714-2.908,1.409-5.764,2.118-8.614c0.864-3.482,1.743-6.96,2.611-10.44c0.358-1.438,1.237-2.151,2.693-2.151
			c13.774-0.001,27.551-0.001,41.325,0c1.421,0,2.343,0.709,2.681,2.06c1.531,6.134,3.061,12.268,4.588,18.402
			c0.057,0.227,0.083,0.46,0.132,0.744C78.438,54.654,59.78,54.654,40.986,54.654z"/>
		<path display="inline" fill-rule="evenodd" clip-rule="evenodd" fill="#FFFFFF" d="M99.165,72.332
			c0.016-4.901,3.989-8.803,8.953-8.791c4.815,0.012,8.78,4.046,8.755,8.908c-0.025,4.853-4.038,8.835-8.872,8.806
			C103.064,81.226,99.15,77.272,99.165,72.332z"/>
		<path display="inline" fill-rule="evenodd" clip-rule="evenodd" fill="#F3CD13" d="M108,63.541
			c1.145-0.002,2.237,0.211,3.24,0.601l-3.222,8.256l7.696-4.402c0.741,1.296,1.162,2.796,1.158,4.399
			c-0.008,4.883-3.936,8.841-8.792,8.86c-4.957,0.021-8.927-3.948-8.916-8.912C99.175,67.481,103.123,63.548,108,63.541"/>
		<path display="inline" fill-rule="evenodd" clip-rule="evenodd" fill="#FFFFFF" d="M21.336,72.332
			c0.015-4.901,3.989-8.803,8.953-8.791c4.815,0.012,8.779,4.046,8.755,8.908c-0.025,4.853-4.038,8.835-8.872,8.806
			C25.236,81.226,21.321,77.272,21.336,72.332z"/>
		<path display="inline" fill-rule="evenodd" clip-rule="evenodd" fill="#F3CD13" d="M30.171,63.541
			c1.144-0.002,2.237,0.211,3.24,0.601l-3.222,8.256l7.696-4.402c0.74,1.296,1.162,2.796,1.158,4.399
			c-0.009,4.883-3.937,8.841-8.792,8.86c-4.957,0.021-8.927-3.948-8.916-8.912C21.347,67.481,25.294,63.548,30.171,63.541"/>
	</g>
</g>
<g id="artboard-7">
</g>
</svg>
