<?xml version="1.0" encoding="utf-8"?>
<!-- Generator: Adobe Illustrator 16.0.0, SVG Export Plug-In . SVG Version: 6.00 Build 0)  -->
<!DOCTYPE svg PUBLIC "-//W3C//DTD SVG 1.1//EN" "http://www.w3.org/Graphics/SVG/1.1/DTD/svg11.dtd">
<svg version="1.1" xmlns="http://www.w3.org/2000/svg" xmlns:xlink="http://www.w3.org/1999/xlink" x="0px" y="0px" width="270px"
	 height="270px" viewBox="0 0 270 270" enable-background="new 0 0 270 270" xml:space="preserve">
<symbol  id="New_Symbol" viewBox="-191.247 -31.876 573.741 63.753">
	<g>
		<polygon fill="#2F317C" points="-159.373,31.874 -191.247,-0.001 -159.373,0 		"/>
		<polygon fill="#00A4C4" points="-159.373,-31.876 -127.498,-0.001 -159.373,0 		"/>
		<polygon fill="#36AE4A" points="-159.373,0 -191.247,-0.001 -159.373,-31.876 		"/>
		<polygon fill="#F3CD13" points="-127.498,-0.001 -159.373,31.874 -159.373,0 		"/>
	</g>
	<g>
		<polygon fill="#F3CD13" points="-95.623,31.874 -127.498,-0.001 -95.623,0 		"/>
		<polygon fill="#36AE4A" points="-95.623,-31.876 -63.749,-0.001 -95.623,0 		"/>
		<polygon fill="#2F317C" points="-95.623,0 -127.498,-0.001 -95.623,-31.876 		"/>
		<polygon fill="#00A4C4" points="-63.749,-0.001 -95.623,31.874 -95.623,0 		"/>
	</g>
	<g>
		<polygon fill="#2F317C" points="95.624,31.875 63.749,0 95.624,0.001 		"/>
		<polygon fill="#00A4C4" points="95.624,-31.875 127.498,0 95.624,0.001 		"/>
		<polygon fill="#36AE4A" points="95.624,0.001 63.749,0 95.624,-31.875 		"/>
		<polygon fill="#F3CD13" points="127.498,0 95.624,31.875 95.624,0.001 		"/>
	</g>
	<g>
		<polygon fill="#2F317C" points="350.62,31.877 318.745,0.002 350.62,0.003 		"/>
		<polygon fill="#00A4C4" points="350.62,-31.873 382.494,0.002 350.62,0.003 		"/>
		<polygon fill="#36AE4A" points="350.62,0.003 318.745,0.002 350.62,-31.873 		"/>
		<polygon fill="#F3CD13" points="382.494,0.002 350.62,31.877 350.62,0.003 		"/>
	</g>
	<g>
		<polygon fill="#00A4C4" points="-31.874,31.874 -63.749,-0.001 -31.874,0 		"/>
		<polygon fill="#2F317C" points="-31.874,-31.876 0,-0.001 -31.874,0 		"/>
		<polygon fill="#F3CD13" points="-31.874,0 -63.749,-0.001 -31.874,-31.876 		"/>
		<polygon fill="#36AE4A" points="0,-0.001 -31.874,31.874 -31.874,0 		"/>
	</g>
	<g>
		<polygon fill="#00A4C4" points="223.122,31.874 191.247,-0.001 223.122,0 		"/>
		<polygon fill="#2F317C" points="223.123,-31.876 254.997,-0.001 223.122,0 		"/>
		<polygon fill="#F3CD13" points="223.122,0 191.247,-0.001 223.123,-31.876 		"/>
		<polygon fill="#36AE4A" points="254.997,-0.001 223.122,31.874 223.122,0 		"/>
	</g>
	<g>
		<polygon fill="#36AE4A" points="31.875,31.874 0,-0.001 31.875,0 		"/>
		<polygon fill="#F3CD13" points="31.875,-31.876 63.749,-0.001 31.875,0 		"/>
		<polygon fill="#00A4C4" points="31.875,0 0,-0.001 31.875,-31.876 		"/>
		<polygon fill="#2F317C" points="63.749,-0.001 31.875,31.874 31.875,0 		"/>
	</g>
	<g>
		<polygon fill="#36AE4A" points="286.871,31.874 254.997,-0.001 286.871,0 		"/>
		<polygon fill="#F3CD13" points="286.872,-31.876 318.745,-0.001 286.871,0 		"/>
		<polygon fill="#00A4C4" points="286.871,0 254.997,-0.001 286.872,-31.876 		"/>
		<polygon fill="#2F317C" points="318.745,-0.001 286.871,31.874 286.871,0 		"/>
	</g>
	<g>
		<polygon fill="#F3CD13" points="159.373,31.876 127.498,0.001 159.373,0.002 		"/>
		<polygon fill="#36AE4A" points="159.373,-31.874 191.247,0.001 159.373,0.002 		"/>
		<polygon fill="#2F317C" points="159.373,0.002 127.498,0.001 159.373,-31.874 		"/>
		<polygon fill="#00A4C4" points="191.247,0.001 159.373,31.876 159.373,0.002 		"/>
	</g>
</symbol>
<g id="_x31__1_">
</g>
<g id="_x32__1_">
</g>
<g id="_x33__1_">
</g>
<g id="_x31_">
</g>
<g id="有灵且美">
	<g id="bright_x26_beautiful" display="none">
	</g>
</g>
<g id="_x32_">
</g>
<g id="_x32_-0">
	<g id="kite">
	</g>
</g>
<g id="_x32_-1" display="none">
	<g id="kite_snap_1_" display="inline">
	</g>
</g>
<g id="_x33_">
	<g id="accidents">
	</g>
	<g id="child_labor">
	</g>
	<g id="prosititution">
	</g>
	<g id="dropout">
	</g>
	<g id="loneliness">
	</g>
	<g id="hand">
		<g id="Layer_19">
		</g>
	</g>
</g>
<g id="_x34_">
	<g id="Layer_23">
	</g>
	<g id="pulsera">
	</g>
</g>
<g id="nav">
</g>
<g id="_x35_">
	<g id="friends">
	</g>
</g>
<g id="_x36_">
	<g id="others" display="none">
	</g>
</g>
<g id="artboard-2">
</g>
<g id="artboard-6">
	<g>
		<g id="有_3_">
			<path fill-rule="evenodd" clip-rule="evenodd" fill="#FFFFFF" d="M33.34,34.14c1.164-1.146,2.43-0.674,3.734-0.292
				c2.641,0.771,5.273,1.62,7.963,2.17c4.363,0.892,8.807,0.815,13.23,0.564c12.008-0.681,23.629-3.305,34.979-7.2
				c3.162-1.085,6.281-2.297,9.406-3.488c0.566-0.216,1.115-0.546,1.588-0.928c3.797-3.061,7.547-6.18,11.361-9.217
				c3.652-2.907,7.572-5.327,12.271-6.18c0.055-0.01,0.098-0.09,0.146-0.137c1.176,0,2.352,0,3.529,0
				c0.861,0.322,1.756,0.58,2.58,0.979c2.16,1.046,2.467,2.64,0.555,4.049c-2.688,1.983-5.484,3.853-8.389,5.5
				c-8.367,4.746-17.303,8.24-26.279,11.63c-0.559,0.211-1.129,0.546-1.539,0.973c-6.527,6.801-12.305,14.204-17.652,21.959
				c-4.662,6.763-8.742,13.826-11.611,21.55c-0.68,1.829-1.143,3.685-1.016,5.66c0.062,0.972-0.271,1.239-1.164,0.812
				c-0.891-0.427-1.771-0.951-2.508-1.603c-1.523-1.351-1.701-2.355-0.934-4.23c4.955-12.09,11.734-23.075,20.283-32.937
				c2.756-3.179,5.857-6.059,8.807-9.068c0.213-0.219,0.484-0.38,0.592-0.757c-2.361,0.702-4.721,1.414-7.086,2.106
				c-7.771,2.274-15.688,3.823-23.752,4.51c-4.779,0.407-9.578,0.724-14.371,0.773c-2.521,0.026-5.086-0.449-7.566-0.987
				c-2.889-0.625-5.367-2.101-7.158-4.551C33.34,35.247,33.34,34.693,33.34,34.14z M128.199,13.309
				c-2.99-0.783-14.314,5.276-19.092,9.847c0.4-0.131,0.66-0.19,0.895-0.299c3.635-1.677,7.283-3.326,10.895-5.054
				c2.021-0.967,4-2.032,5.953-3.133C127.385,14.367,127.754,13.771,128.199,13.309z"/>
			<path fill-rule="evenodd" clip-rule="evenodd" fill="#FFFFFF" d="M110.01,74.86c1.725-1.584,3.332-3.061,4.939-4.538
				c0.104,0.064,0.209,0.128,0.314,0.192c0,0.453,0.064,0.917-0.01,1.357c-0.428,2.499-1.504,4.704-3.457,6.323
				c-1.535,1.273-1.914,2.744-1.908,4.682c0.023,9.095-0.113,18.191-0.203,27.287c-0.006,0.55-0.072,1.105-0.17,1.647
				c-0.205,1.11-0.738,1.383-1.768,0.89c-2.512-1.205-4.574-2.964-6.25-5.177c-2.025-2.672-3.404-5.677-4.438-8.846
				c-0.176-0.539-0.143-1.147-0.049-1.771c2.699,3.371,4.295,7.486,7.498,10.414c0.131-0.022,0.262-0.044,0.393-0.067
				c0.162-0.99,0.438-1.976,0.467-2.969c0.182-6.219,0.309-12.44,0.449-18.661c0.004-0.131-0.023-0.263-0.066-0.68
				c-1.141,1.418-2.211,2.615-3.127,3.921c-1.127,1.61-2.102,3.328-3.186,4.971c-0.891,1.352-2.031,1.739-3.379,1.237
				c-1.73-0.645-2.42-2.527-1.295-4.167c1.01-1.471,2.262-2.787,3.498-4.086c2.287-2.405,4.66-4.73,6.947-7.137
				c0.355-0.374,0.59-0.995,0.621-1.518c0.084-1.411,0.029-2.832,0.029-4.398c-0.324,0.184-0.555,0.291-0.758,0.436
				c-3.402,2.432-6.818,4.844-10.176,7.335c-0.412,0.305-0.66,1.02-0.719,1.573c-0.264,2.472-0.521,4.952-0.613,7.435
				c-0.191,5.214-0.385,10.432-0.35,15.647c0.012,2.071,0.619,4.139,0.975,6.206c0.086,0.507,0.301,0.997,0.348,1.505
				c0.123,1.333-0.498,1.773-1.766,1.275c-1.248-0.489-2.131-1.391-2.758-2.553c-1.064-1.97-1.252-4.148-1.445-6.314
				c-0.57-6.403,0.164-12.771,0.531-19.151c0.527-9.198,2.119-18.23,4.133-27.2c0.014-0.062-0.004-0.13-0.008-0.194
				c-1.68-0.916-2.146-2.181-1.188-3.861c0.607-1.061,1.545-1.928,2.285-2.919c0.357-0.479,0.711-1.011,0.875-1.574
				c0.529-1.82,0.912-3.683,1.467-5.494c0.256-0.839,0.678-1.673,1.203-2.376c0.783-1.046,2.229-1.371,3.258-0.909
				c0.887,0.398,1.271,1.334,1.084,2.776c-0.064,0.501-0.238,0.988-0.393,1.595c0.904-0.479,1.691-0.95,2.523-1.325
				c2.949-1.333,5.562,0.103,5.744,3.353c0.174,3.061,0.01,6.141-0.012,9.212c-0.029,4.012-0.064,8.023-0.092,12.035
				C110.002,71.753,110.01,73.229,110.01,74.86z M95.152,75.583c0.359-0.201,0.537-0.29,0.703-0.396
				c3.055-1.957,6.09-3.945,9.176-5.85c0.637-0.393,0.811-0.783,0.793-1.477c-0.084-3.179-0.152-6.358-0.158-9.538
				c-0.006-2.28,0.141-4.561,0.127-6.84c-0.006-0.563-0.375-1.124-0.578-1.686c-0.549,0.211-1.203,0.299-1.627,0.658
				c-1.262,1.073-2.467,2.222-3.625,3.408c-0.383,0.392-0.689,0.958-0.805,1.494c-0.926,4.28-1.818,8.567-2.676,12.862
				C96.006,70.605,95.615,73.01,95.152,75.583z"/>
		</g>
		<g id="灵_3_">
			<path fill-rule="evenodd" clip-rule="evenodd" fill="#FFFFFF" d="M114.623,120.181c-0.549,0.149-1.135,0.221-1.641,0.459
				c-4.807,2.261-9.691,4.38-14.377,6.873c-6.611,3.517-13.076,7.312-19.598,11.001c-0.811,0.458-1.545,1.059-2.375,1.473
				c-1.857,0.927-4.268-0.742-3.982-2.81c0.08-0.576,0.615-1.271,1.139-1.573c2.836-1.642,5.68-3.287,8.621-4.729
				c9.635-4.724,19.307-9.371,28.977-14.023c1.992-0.958,4.07-1.651,6.275-0.681c0.715,0.315,1.434,0.716,2.016,1.23
				c1.172,1.035,1.529,2.364,0.926,3.847c-0.256,0.634-0.576,1.265-0.979,1.816c-5.533,7.605-11.111,15.178-17.555,22.062
				c-2.111,2.255-4.213,4.521-6.381,6.849c1.545,1.288,1.666,3.267,1.664,5.316c-0.006,6.129-1.52,11.955-3.502,17.687
				c-0.967,2.795-1.984,5.572-2.898,8.135c11.266,6.8,22.787,12.957,34.861,18.042c3.637,1.532,7.277,2.999,11.264,3.312
				c0.752,0.059,1.529-0.029,2.256,0.132c0.424,0.094,0.768,0.546,1.146,0.837c-0.303,0.363-0.541,0.921-0.926,1.057
				c-2.51,0.88-5.111,1.121-7.756,0.913c-5.664-0.444-10.701-2.753-15.438-5.616c-8.631-5.217-17.111-10.682-25.654-16.044
				c-0.176-0.109-0.346-0.226-0.615-0.402c-0.184,0.423-0.363,0.81-0.523,1.205c-3.049,7.569-7.061,14.534-12.812,20.403
				c-1.799,1.835-3.746,3.482-6.105,4.581c-1.986,0.926-4.021,1.2-6.139,0.527c-0.293-0.094-0.625-0.184-0.842-0.382
				c-0.383-0.354-0.691-0.791-1.031-1.193c0.355-0.298,0.699-0.611,1.068-0.892c1.615-1.229,3.369-2.311,4.834-3.698
				c5.699-5.401,10.781-11.314,14.336-18.392c1.006-2.003,1.893-4.066,2.801-6.118c0.119-0.268,0.174-0.722,0.027-0.927
				c-1.998-2.814-2.941-6.08-3.941-9.3c-1.082-3.487-1.967-7.036-2.961-10.551c-0.105-0.373-0.301-0.786-0.582-1.031
				c-1.664-1.44-1.564-2.439,0.385-3.395c0.121-0.059,0.23-0.141,0.566-0.348c-1.529,0.229-2.152-0.561-2.572-1.646
				c-0.475-1.231-0.457-2.438,0.525-3.368c1.553-1.47,3.111-2.964,4.84-4.21c3.361-2.425,6.814-4.725,10.277-7.002
				c3.418-2.247,7.188-3.647,11.221-4.324c0.725-0.122,1.23-0.43,1.666-1.05c2.781-3.96,5.607-7.888,8.404-11.838
				c0.451-0.637,0.822-1.332,1.23-2C114.717,120.323,114.668,120.252,114.623,120.181z M88.775,172.432
				c1.982-5.968,3.207-12.013,3.75-18.168c-3.336,2.026-6.613,4.015-9.984,6.062c1.305,4.033,2.453,8.33,4.352,12.4
				c0.256-0.433,0.332-0.867,0.494-1.267c0.164-0.402,0.41-0.77,0.621-1.153c0.113,0.027,0.225,0.055,0.338,0.083
				C88.49,171.069,88.633,171.75,88.775,172.432z M101.553,139.06c-8.82,3.559-16.422,8.332-21.648,16.615
				c1.887-1.182,3.713-2.1,5.273-3.349c3.066-2.458,6.002-5.082,8.959-7.674c1.053-0.922,2.182-1.409,3.592-1.188
				c0.221,0.035,0.57-0.052,0.693-0.212C99.449,141.923,100.438,140.564,101.553,139.06z"/>
			<path fill-rule="evenodd" clip-rule="evenodd" fill="#FFFFFF" d="M112.518,165.502c-0.545,1.218-0.84,2.404-1.516,3.305
				c-3.49,4.653-7.627,8.567-13.127,10.783c-0.762,0.306-1.58,0.541-2.391,0.619c-0.447,0.044-1.053-0.198-1.35-0.526
				c-0.146-0.164,0.123-0.93,0.41-1.218c1.096-1.1,2.234-2.166,3.432-3.154c2.461-2.032,4.82-4.156,6.66-6.788
				c0.473-0.675,0.863-1.415,1.24-2.15c0.674-1.32,0.855-2.642,0.168-4.066c-0.25-0.517-0.123-1.216-0.168-1.832
				c0.684,0.006,1.486-0.214,2.031,0.065c1.15,0.592,2.301,1.316,3.195,2.235C111.771,163.459,112.039,164.535,112.518,165.502z"/>
		</g>
		<g id="且_3_">
			<path fill-rule="evenodd" clip-rule="evenodd" fill="#FFFFFF" d="M191.271,144.296c-0.705,2.744-2.068,3.443-4.643,2.393
				c-0.889-0.362-1.678-0.96-2.561-1.343c-0.594-0.259-1.283-0.501-1.91-0.454c-3.549,0.265-7.088,0.635-10.633,0.928
				c-0.611,0.051-0.982,0.217-1.055,0.856c-0.016,0.134-0.082,0.264-0.133,0.391c-0.506,1.218-1.135,2.334-2.609,2.526
				c-1.52,0.198-2.4-0.785-3.027-1.931c-0.43-0.787-0.916-0.926-1.725-0.802c-6.203,0.956-12.498,1.546-18.418,3.777
				c-2.461,0.928-4.824,2.248-7.023,3.704c-1.977,1.307-3.768,1.509-5.605,0.102c-1.414-1.082-2.836-2.227-3.963-3.586
				c-1.268-1.529-0.494-3.087,1.502-3.268c0.947-0.085,1.922,0.172,2.885,0.173c1.088,0,2.211,0.04,3.256-0.202
				c6.014-1.389,11.986-2.947,18.016-4.258c2.924-0.637,5.938-0.862,8.889-1.27c0.318-4.924,0.635-9.837,0.959-14.827
				c-0.074-0.028-0.188-0.098-0.309-0.114c-1.062-0.138-1.842-0.664-2.082-1.733c-0.238-1.065,0.355-1.956,1.201-2.323
				c1.74-0.753,1.793-2.139,1.92-3.695c0.289-3.609,0.717-7.207,1.111-11.031c-0.584,0.539-1.002,0.983-1.479,1.354
				c-1.145,0.888-2.285,1.784-3.48,2.598c-1.104,0.75-2.283,0.631-3.439,0.047c-1.209-0.61-1.434-1.265-0.555-2.27
				c1.02-1.167,2.121-2.288,3.309-3.28c1.777-1.482,3.635-2.873,5.52-4.219c0.631-0.45,0.898-0.938,0.992-1.67
				c0.553-4.35,1.141-8.695,1.719-13.042c0.074-0.559,0.156-1.118,0.234-1.677c-0.084-0.04-0.168-0.08-0.254-0.119
				c-0.539,0.735-1.023,1.521-1.643,2.185c-0.381,0.411-0.945,0.848-1.465,0.9c-1.395,0.141-2.705-0.194-3.502-1.512
				c-0.826-1.366-0.504-2.695,0.379-3.868c0.682-0.905,1.469-1.752,2.316-2.504c2.043-1.812,4.127-3.579,6.234-5.319
				c4.482-3.706,9.592-6.184,15.227-7.573c0.893-0.221,1.848-0.31,2.768-0.266c1.355,0.064,1.994,0.633,2.074,1.988
				c0.123,2.098,0.123,4.207,0.074,6.309c-0.201,8.779-0.594,17.556-0.619,26.335c-0.027,9.507,0.248,19.016,0.449,28.524
				c0.059,2.753,0.316,5.502,0.475,8.114c2.918,0,5.674-0.016,8.43,0.003c4.287,0.031,8.576-0.015,12.855,0.154
				c5.008,0.198,10.01,0.663,14.855,2.028c2.648,0.745,5.242,1.705,7.818,2.677c1.395,0.526,2.248,1.523,2.016,3.205
				c-0.207,1.504-1.012,2.548-2.27,3.26c-0.732,0.416-1.486,0.269-2.096-0.327c-4.703-4.589-10.604-6.353-16.906-6.522
				c-6.932-0.186-13.881,0.183-20.822,0.322C193.432,144.165,192.334,144.244,191.271,144.296z M184.734,93.015
				c0.061-0.623,0.146-1.266,0.178-1.912c0.193-4.07,0.393-8.139,0.555-12.21c0.064-1.622,0.1-3.249,0.047-4.87
				c-0.047-1.332-0.689-1.772-1.9-1.349c-0.74,0.259-1.496,0.583-2.115,1.05c-2.096,1.579-4.143,3.223-6.178,4.876
				c-0.227,0.183-0.34,0.575-0.393,0.889c-0.756,4.664-1.494,9.331-2.232,13.998c-0.238,1.506-0.453,3.016-0.701,4.659
				C176.209,96.09,180.107,93.749,184.734,93.015z M172.271,130.79c0.154-0.604,0.154-1.354,0.512-1.844
				c0.941-1.29,2.064-2.445,3.062-3.695c1.662-2.076,3.309-4.166,4.908-6.289c0.418-0.552,0.646-1.246,0.961-1.875
				c-0.125-0.11-0.252-0.22-0.377-0.331c-0.803,0.422-1.643,0.783-2.398,1.275c-2.98,1.939-5.939,3.909-8.881,5.905
				c-0.25,0.169-0.41,0.604-0.445,0.932c-0.189,1.784-0.301,3.575-0.488,5.358c-0.225,2.131-0.557,4.261,0.242,6.346
				c0.562,1.474,1.154,2.936,1.756,4.455c2.281-0.222,4.633-0.451,6.982-0.679c-0.008-0.149,0.012-0.229-0.02-0.278
				c-1.721-2.901-3.443-5.802-5.182-8.693C172.777,131.166,172.531,131.026,172.271,130.79z M184.357,97.552
				c-0.959,0.112-1.619,0.088-2.213,0.276c-3.748,1.189-7.146,3.092-10.42,5.233c-0.264,0.172-0.479,0.578-0.521,0.901
				c-0.223,1.608-0.41,3.221-0.553,4.838c-0.232,2.659-0.418,5.32-0.623,7.981c0.092,0.05,0.182,0.101,0.275,0.152
				c0.104-0.175,0.189-0.364,0.314-0.522c2.213-2.792,4.477-5.542,6.631-8.377c2.133-2.806,4.166-5.686,6.211-8.558
				C183.797,99,183.967,98.403,184.357,97.552z M183.959,121.844c-3.311,2.824-6.492,5.538-9.723,8.294
				c0.279,0.338,0.553,0.645,0.801,0.969c1.949,2.547,3.924,5.076,5.832,7.654c1.049,1.419,1.369,1.582,3.09,1.053
				C183.959,133.844,183.959,127.893,183.959,121.844z M183.947,104.498c-2.014,3.088-4.035,6.188-5.965,9.149
				c1.877-0.53,3.828-1.08,5.965-1.683C183.947,109.641,183.947,107.075,183.947,104.498z"/>
		</g>
		<g id="美_3_">
			<path fill-rule="evenodd" clip-rule="evenodd" fill="#FFFFFF" d="M177.129,206.246c-2.287,1.39-4.584,2.918-7.008,4.214
				c-1.705,0.914-3.617,1.23-5.488,0.354c-0.49-0.229-1.088-0.654-1.205-1.102c-0.084-0.318,0.475-0.943,0.885-1.23
				c3.176-2.213,6.398-4.357,9.576-6.567c1.189-0.828,2.312-1.756,3.436-2.674c0.242-0.195,0.49-0.534,0.508-0.822
				c0.08-1.215-1.133-5.038-1.928-6.176c-2.041,1.011-4.109,2.013-6.16,3.058c-1.904,0.972-3.773,2.018-5.688,2.976
				c-1.232,0.616-2.52,0.956-3.881,0.317c-1.768-0.829-1.984-2.356-0.342-3.387c1.926-1.209,3.902-2.389,5.982-3.296
				c6.529-2.855,11.504-7.55,15.867-13.137c-1.797-2.565-2.049-5.765-2.939-8.749c-0.781-2.623-1.758-5.084-3.971-6.878
				c-0.441-0.357-0.785-0.882-1.055-1.393c-0.453-0.854,0.047-1.782,1.004-1.745c0.721,0.028,1.518,0.248,2.125,0.63
				c2.686,1.697,4.369,4.217,5.322,7.184c0.758,2.359,1.291,4.789,1.924,7.187c0.074,0.291,0.146,0.582,0.268,1.051
				c1.842-2.107,3.666-4.042,5.314-6.116c2.451-3.082,4.777-6.262,7.16-9.397c0.273-0.357,0.549-0.715,0.854-1.042
				c0.84-0.896,1.824-1.373,3.062-0.901c1.467,0.558,2.273,1.688,2.279,3.134c0.002,1.495-0.627,2.768-1.523,3.881
				c-0.973,1.208-1.998,2.395-3.131,3.45c-4.529,4.219-9.107,8.383-13.668,12.569c-0.143,0.133-0.268,0.284-0.578,0.614
				c2.299-1.02,4.352-1.973,6.439-2.84c1.332-0.554,2.699-1.041,4.084-1.448c1.199-0.354,2.396-0.146,3.529,0.393
				c2.031,0.965,2.324,2.668,0.67,4.185c-0.994,0.91-2.061,1.74-3.104,2.597c-2.242,1.843-4.488,3.68-6.775,5.556
				c0.039,0.047,0.158,0.199,0.285,0.345c1.197,1.376,1.428,2.615,0.451,4.169c-0.707,1.122-1.693,2.074-2.588,3.071
				c-0.32,0.355-0.729,0.642-1.123,0.918c-1.932,1.344-3.771,2.7-4.078,5.346c-0.098,0.84-0.732,1.618-1.205,2.594
				c0.738-0.29,1.348-0.554,1.975-0.771c4.82-1.663,9.633-3.345,14.473-4.949c0.898-0.297,1.906-0.375,2.861-0.36
				c0.627,0.01,1.248,0.369,1.869,0.572c-0.34,0.558-0.549,1.311-1.041,1.64c-1.721,1.145-3.461,2.304-5.33,3.169
				c-11.023,5.103-22.102,10.086-33.121,15.193c-3.975,1.841-7.805,3.995-11.777,5.84c-1.828,0.849-3.812,1.424-5.781,1.869
				c-0.854,0.192-1.955-0.054-2.766-0.458c-1.613-0.808-1.613-2.638-0.025-3.475c3.145-1.657,6.312-3.276,9.525-4.795
				c7.27-3.439,14.543-6.874,21.877-10.166C175.516,209.521,176.369,207.885,177.129,206.246z M181.209,195.63
				c1.189-1.135,2.322-2.192,3.43-3.274c1.424-1.394,1.377-1.677-0.354-2.591c-0.047-0.024-0.057-0.115-0.084-0.175
				c1.025-0.448,1.141-0.435,3.879,0.443c1.404-1.763,2.822-3.541,4.238-5.319c-0.088-0.098-0.176-0.196-0.266-0.294
				c-4.617,2.197-9.234,4.394-13.908,6.618C179.209,192.633,180.16,194.061,181.209,195.63z"/>
			<path fill-rule="evenodd" clip-rule="evenodd" fill="#FFFFFF" d="M181.816,224.921c2.594-1.813,5.037-3.491,7.447-5.214
				c3.293-2.351,6.555-4.743,9.842-7.1c0.529-0.378,1.098-0.735,1.697-0.975c1.164-0.465,2.039,0.127,2.006,1.373
				c-0.066,2.247-1.137,4.113-2.496,5.795c-1.783,2.206-4.109,3.791-6.5,5.262c-4.531,2.789-9.074,5.562-13.635,8.304
				c-0.676,0.406-1.049,0.905-1.287,1.634c-2.004,6.167-4.604,12.062-8.262,17.443c-2.238,3.291-4.826,6.242-8.506,8.016
				c-2.463,1.188-5.025,1.396-7.668,0.752c-0.334-0.081-0.662-0.202-0.969-0.356c-0.896-0.452-0.949-0.958-0.129-1.517
				c0.627-0.426,1.34-0.725,1.955-1.165c5.584-3.994,10.084-9.021,13.865-14.712c1.045-1.571,1.963-3.225,2.781-5.007
				c-0.309,0.168-0.623,0.327-0.926,0.506c-4.227,2.506-8.523,4.87-13.377,5.947c-1.229,0.273-2.531,0.384-3.789,0.331
				c-1.896-0.08-2.566-1.366-1.406-2.878c1.615-2.105,3.332-4.167,5.236-6.009c2.732-2.64,5.635-5.106,8.547-7.549
				c0.877-0.735,2.008-1.189,3.064-1.672c0.312-0.142,0.781,0.055,1.176,0.097c-0.074,0.381-0.031,0.85-0.242,1.128
				c-1.541,2.041-3.139,4.037-4.705,6.06c-0.559,0.72-1.076,1.469-1.611,2.205c0.066,0.084,0.137,0.169,0.203,0.253
				c0.521-0.219,1.08-0.373,1.555-0.667c3.402-2.12,6.795-4.255,10.162-6.428c0.359-0.232,0.646-0.702,0.789-1.122
				c0.949-2.828,1.162-5.728,0.812-8.692c-0.082-0.694,0-1.471,0.236-2.127c0.473-1.312,1.541-1.506,2.461-0.467
				c1.355,1.528,2.064,3.332,1.949,5.402C182.043,222.734,181.928,223.691,181.816,224.921z"/>
			<path fill-rule="evenodd" clip-rule="evenodd" fill="#FFFFFF" d="M217.291,259.904c-4.439-0.462-8.426-2.057-12.246-4.125
				c-6.041-3.27-11.412-7.527-16.932-11.562c-1.451-1.06-2.895-2.133-4.324-3.223c-0.518-0.396-1.1-0.786-1.447-1.313
				c-0.346-0.523-0.43-1.216-0.631-1.834c0.637-0.19,1.285-0.573,1.906-0.533c1.549,0.099,2.707,1.093,3.902,1.99
				c3.174,2.383,6.281,4.873,9.592,7.055c6.863,4.525,14.342,7.67,22.438,9.238c1.311,0.254,2.68,0.211,4.02,0.315
				c0.443,0.034,0.898,0.055,1.328,0.16c0.707,0.173,0.834,0.63,0.521,1.264c-0.537,1.094-1.521,1.634-2.621,1.833
				C220.979,259.497,219.129,259.667,217.291,259.904z"/>
		</g>
	</g>
</g>
<g id="artboard-4">
</g>
</svg>
