<?xml version="1.0" encoding="utf-8"?>
<!-- Generator: Adobe Illustrator 16.0.0, SVG Export Plug-In . SVG Version: 6.00 Build 0)  -->
<!DOCTYPE svg PUBLIC "-//W3C//DTD SVG 1.1//EN" "http://www.w3.org/Graphics/SVG/1.1/DTD/svg11.dtd">
<svg version="1.1" xmlns="http://www.w3.org/2000/svg" xmlns:xlink="http://www.w3.org/1999/xlink" x="0px" y="0px"
	 width="198.394px" height="193px" viewBox="0 0 198.394 193" enable-background="new 0 0 198.394 193" xml:space="preserve">
<symbol  id="New_Symbol" viewBox="-191.247 -31.876 573.741 63.753">
	<g>
		<polygon fill="#2F317C" points="-159.373,31.874 -191.247,-0.001 -159.373,0 		"/>
		<polygon fill="#00A4C4" points="-159.373,-31.876 -127.498,-0.001 -159.373,0 		"/>
		<polygon fill="#36AE4A" points="-159.373,0 -191.247,-0.001 -159.373,-31.876 		"/>
		<polygon fill="#F3CD13" points="-127.498,-0.001 -159.373,31.874 -159.373,0 		"/>
	</g>
	<g>
		<polygon fill="#F3CD13" points="-95.623,31.874 -127.498,-0.001 -95.623,0 		"/>
		<polygon fill="#36AE4A" points="-95.623,-31.876 -63.749,-0.001 -95.623,0 		"/>
		<polygon fill="#2F317C" points="-95.623,0 -127.498,-0.001 -95.623,-31.876 		"/>
		<polygon fill="#00A4C4" points="-63.749,-0.001 -95.623,31.874 -95.623,0 		"/>
	</g>
	<g>
		<polygon fill="#2F317C" points="95.624,31.875 63.749,0 95.624,0.001 		"/>
		<polygon fill="#00A4C4" points="95.624,-31.875 127.498,0 95.624,0.001 		"/>
		<polygon fill="#36AE4A" points="95.624,0.001 63.749,0 95.624,-31.875 		"/>
		<polygon fill="#F3CD13" points="127.498,0 95.624,31.875 95.624,0.001 		"/>
	</g>
	<g>
		<polygon fill="#2F317C" points="350.62,31.877 318.745,0.002 350.62,0.003 		"/>
		<polygon fill="#00A4C4" points="350.62,-31.873 382.494,0.002 350.62,0.003 		"/>
		<polygon fill="#36AE4A" points="350.62,0.003 318.745,0.002 350.62,-31.873 		"/>
		<polygon fill="#F3CD13" points="382.494,0.002 350.62,31.877 350.62,0.003 		"/>
	</g>
	<g>
		<polygon fill="#00A4C4" points="-31.874,31.874 -63.749,-0.001 -31.874,0 		"/>
		<polygon fill="#2F317C" points="-31.874,-31.876 0,-0.001 -31.874,0 		"/>
		<polygon fill="#F3CD13" points="-31.874,0 -63.749,-0.001 -31.874,-31.876 		"/>
		<polygon fill="#36AE4A" points="0,-0.001 -31.874,31.874 -31.874,0 		"/>
	</g>
	<g>
		<polygon fill="#00A4C4" points="223.122,31.874 191.247,-0.001 223.122,0 		"/>
		<polygon fill="#2F317C" points="223.123,-31.876 254.997,-0.001 223.122,0 		"/>
		<polygon fill="#F3CD13" points="223.122,0 191.247,-0.001 223.123,-31.876 		"/>
		<polygon fill="#36AE4A" points="254.997,-0.001 223.122,31.874 223.122,0 		"/>
	</g>
	<g>
		<polygon fill="#36AE4A" points="31.875,31.874 0,-0.001 31.875,0 		"/>
		<polygon fill="#F3CD13" points="31.875,-31.876 63.749,-0.001 31.875,0 		"/>
		<polygon fill="#00A4C4" points="31.875,0 0,-0.001 31.875,-31.876 		"/>
		<polygon fill="#2F317C" points="63.749,-0.001 31.875,31.874 31.875,0 		"/>
	</g>
	<g>
		<polygon fill="#36AE4A" points="286.871,31.874 254.997,-0.001 286.871,0 		"/>
		<polygon fill="#F3CD13" points="286.872,-31.876 318.745,-0.001 286.871,0 		"/>
		<polygon fill="#00A4C4" points="286.871,0 254.997,-0.001 286.872,-31.876 		"/>
		<polygon fill="#2F317C" points="318.745,-0.001 286.871,31.874 286.871,0 		"/>
	</g>
	<g>
		<polygon fill="#F3CD13" points="159.373,31.876 127.498,0.001 159.373,0.002 		"/>
		<polygon fill="#36AE4A" points="159.373,-31.874 191.247,0.001 159.373,0.002 		"/>
		<polygon fill="#2F317C" points="159.373,0.002 127.498,0.001 159.373,-31.874 		"/>
		<polygon fill="#00A4C4" points="191.247,0.001 159.373,31.876 159.373,0.002 		"/>
	</g>
</symbol>
<g id="_x31__1_">
</g>
<g id="_x32__1_">
</g>
<g id="_x33__1_">
</g>
<g id="_x31_">
</g>
<g id="有灵且美">
	<g id="bright_x26_beautiful" display="none">
	</g>
</g>
<g id="_x32_">
</g>
<g id="_x32_-0">
	<g id="kite">
	</g>
</g>
<g id="_x32_-1" display="none">
	<g id="kite_snap_1_" display="inline">
	</g>
</g>
<g id="_x33_">
	<g id="accidents">
	</g>
	<g id="child_labor">
	</g>
	<g id="prosititution">
	</g>
	<g id="dropout">
	</g>
	<g id="loneliness">
	</g>
	<g id="hand">
		<g id="Layer_19">
		</g>
	</g>
</g>
<g id="_x34_">
	<g id="Layer_23">
	</g>
	<g id="pulsera">
	</g>
</g>
<g id="nav">
</g>
<g id="_x35_">
	<g id="friends">
	</g>
</g>
<g id="_x36_">
	<g id="others" display="none">
	</g>
</g>
<g id="artboard-2">
</g>
<g id="artboard-3">
</g>
<g id="artboard-4">
</g>
<g id="artboard-5">
</g>
<g id="artboard-6">
</g>
<g id="artboard-9">
	<g display="none">
		<g display="inline">
			
				<line fill="none" stroke="#FFFFFF" stroke-width="2" stroke-miterlimit="10" x1="38.568" y1="132.473" x2="56.662" y2="128.215"/>
			<polyline fill="none" stroke="#FFFFFF" stroke-width="2" stroke-miterlimit="10" points="79.568,132.473 56.662,128.215 
				72.568,102.473 			"/>
			
				<line fill="none" stroke="#FFFFFF" stroke-width="2" stroke-miterlimit="10" x1="56.662" y1="128.215" x2="45.068" y2="102.473"/>
			<ellipse fill="none" stroke="#FFFFFF" stroke-width="2" stroke-miterlimit="10" cx="57.216" cy="128.473" rx="6.352" ry="4"/>
		</g>
		<g display="inline">
			<g>
				<g enable-background="new    ">
					<g enable-background="new    ">
						<defs>
							<path id="SVGID_7_" enable-background="new    " d="M3.592,128.963c-0.003-6.17,13.625-11.953,35.442-14.138l0.014,34.335
								c-21.817,2.184-35.445,7.969-35.442,14.139C3.601,151.854,3.596,140.408,3.592,128.963z"/>
						</defs>
						<clipPath id="SVGID_2_">
							<use xlink:href="#SVGID_7_"  overflow="visible"/>
						</clipPath>
						<g clip-path="url(#SVGID_2_)">
							<g>
								<g>
									<path fill="#2F317C" d="M24.414,134.531c-0.007,5.193-0.017,10.385-0.021,15.578c-4.861-4.895-7.751-8.129-11.044-12.36
										C17.504,136.229,18.807,135.819,24.414,134.531"/>
									<path fill="#00A4C4" d="M38.958,132.336c-6.643,0.74-8.474,0.99-14.544,2.195c0.007-5.193,0.014-10.385,0.022-15.578
										C29,123.459,32.8,126.961,38.958,132.336"/>
									<path fill="#37AE4A" d="M24.436,118.953c-0.007,5.193-0.014,10.385-0.022,15.578c-5.276,1.224-6.691,1.604-11.066,3.218
										C16.807,130.677,19.708,125.758,24.436,118.953"/>
									<path fill="#F3CD13" d="M38.958,132.336c-6.01,6.474-9.821,11.125-14.565,17.773c0.007-5.193,0.014-10.385,0.021-15.578
										C30.169,133.4,31.911,133.111,38.958,132.336"/>
									<polyline fill="#2F317C" points="3.599,146.326 3.605,146.095 3.599,145.525 3.599,146.326 									"/>
									<polyline fill="#37AE4A" points="3.599,147.125 3.605,146.095 3.599,146.326 3.599,147.125 									"/>
									<path fill="#37AE4A" d="M6.249,141.699c-0.001,5.194-0.004,10.388-0.004,15.582c-1.776-4.273-2.467-7.201-2.639-11.187
										C3.98,144.184,4.23,143.641,6.249,141.699"/>
									<path fill="#F3CD13" d="M13.348,137.749c-3.692,1.589-4.63,2.065-7.099,3.95c0.001-5.193,0.004-10.387,0.004-15.581
										C8.131,130.243,9.987,133.287,13.348,137.749"/>
									<path fill="#00A4C4" d="M6.253,126.118c-0.001,5.194-0.001,10.388-0.004,15.581c-1.878,1.836-2.278,2.372-2.643,4.396
										C3.789,138.704,4.481,133.477,6.253,126.118"/>
									<path fill="#2F317C" d="M13.348,137.749c-3.383,7.256-5.242,12.367-7.104,19.532c0.001-5.194,0.002-10.388,0.004-15.582
										C8.608,139.922,9.413,139.427,13.348,137.749"/>
								</g>
							</g>
						</g>
					</g>
					<g enable-background="new    ">
						<defs>
							<path id="SVGID_9_" enable-background="new    " d="M109.978,163.254c-0.001-1.658-0.986-3.344-3.062-4.996
								c-9.799-7.797-40.184-11.869-67.867-9.098l-0.014-34.335c27.682-2.772,58.067,1.302,67.867,9.098
								c2.076,1.651,3.062,3.338,3.062,4.997C109.968,140.364,109.973,151.81,109.978,163.254z"/>
						</defs>
						<clipPath id="SVGID_4_">
							<use xlink:href="#SVGID_9_"  overflow="visible"/>
						</clipPath>
						<g clip-path="url(#SVGID_4_)">
							<g>
								<g>
									<path fill="#2F317C" d="M92.94,134.857c-0.007,5.189-0.015,10.377-0.02,15.565c-4.259-6.666-7.684-11.403-13.087-18.106
										C85.841,133.225,87.493,133.519,92.94,134.857"/>
									<path fill="#00A4C4" d="M102.985,138.457c-3.679-1.678-4.853-2.135-10.045-3.6c0.006-5.188,0.014-10.376,0.019-15.564
										C97.396,126.472,100.019,131.486,102.985,138.457"/>
									<path fill="#37AE4A" d="M92.959,119.293c-0.006,5.188-0.011,10.377-0.019,15.564c-5.166-1.258-6.733-1.588-13.106-2.541
										C85.754,126.676,89.066,123.39,92.959,119.293"/>
									<path fill="#F3CD13" d="M102.985,138.457c-2.522,3.465-4.977,6.533-10.065,11.966c0.006-5.188,0.014-10.376,0.02-15.565
										C97.825,136.248,99.119,136.676,102.985,138.457"/>
									<path fill="#F3CD13" d="M108.886,142.91c0,5.188,0.002,10.375,0,15.562c-1.118-6.215-2.441-11.482-5.9-20.016
										C104.979,139.553,108.397,141.59,108.886,142.91"/>
									<path fill="#37AE4A" d="M109.97,145.93l-0.002-5.412c-0.049-3.803-0.164-7.419-1.081-13.169
										c0,5.188-0.001,10.374-0.001,15.562C109.815,144.518,109.871,144.613,109.97,145.93"/>
									<path fill="#2F317C" d="M108.887,127.349c0,5.188-0.001,10.374-0.001,15.562c-1.736-1.984-2.382-2.541-5.9-4.453
										C106.58,133.304,107.833,130.577,108.887,127.349"/>
									<path fill="#00A4C4" d="M109.973,151.318c-0.001-1.797-0.001-3.592-0.002-5.389c-0.227-1.614-0.24-1.711-1.084-3.02
										c0,5.188,0.002,10.375,0,15.562C109.337,156.876,109.957,154.689,109.973,151.318"/>
								</g>
							</g>
						</g>
					</g>
					<g enable-background="new    ">
						<defs>
							<path id="SVGID_11_" enable-background="new    " d="M3.606,163.299c-0.005-11.445-0.01-22.891-0.014-34.336
								c0,1.659,0.986,3.346,3.062,4.997c9.8,7.796,40.185,11.87,67.867,9.098c21.817-2.185,35.445-7.968,35.442-14.138l0,0
								c0.004,11.444,0.009,22.89,0.014,34.334c0.002,6.17-13.625,11.955-35.442,14.139c-27.683,2.771-58.067-1.301-67.867-9.098
								C4.592,166.643,3.606,164.957,3.606,163.299z"/>
						</defs>
						<clipPath id="SVGID_6_">
							<use xlink:href="#SVGID_11_"  overflow="visible"/>
						</clipPath>
						<g clip-path="url(#SVGID_6_)">
							<g>
								<g>
									<path fill="#37AE4A" d="M109.675,147.514c0.179-2.496,0.277-3.87,0.292-6.996l0.002,5.412
										C109.904,146.408,109.825,147.054,109.675,147.514"/>
									<path fill="#00A4C4" d="M109.675,147.514c0.11-0.471,0.272-1.102,0.295-1.584c0.001,1.797,0.001,3.592,0.002,5.389
										c-0.028-1.172-0.049-2.099-0.23-3.347C109.722,147.834,109.669,147.652,109.675,147.514"/>
									<path fill="#2F317C" d="M53.583,161.095c0.014,5.191,0.026,10.382,0.042,15.573c6.821-6.546,10.911-10.596,16.207-16.047
										C62.942,161.049,60.951,161.13,53.583,161.095"/>
									<path fill="#00A4C4" d="M38.036,160.196c6.466,0.592,8.359,0.724,15.547,0.898c-0.014-5.19-0.029-10.381-0.042-15.572
										C48.394,150.437,43.204,155.305,38.036,160.196"/>
									<path fill="#37AE4A" d="M53.542,145.522c0.014,5.191,0.029,10.382,0.042,15.572c6.965,0.024,8.965-0.011,16.249-0.474
										C63.328,154.865,59.065,150.915,53.542,145.522"/>
									<path fill="#F3CD13" d="M38.036,160.196c4.559,5.19,8.571,9.55,15.589,16.472c-0.014-5.191-0.026-10.382-0.042-15.573
										C46.795,160.921,44.869,160.832,38.036,160.196"/>
									<path fill="#00A4C4" d="M105.668,151.874c0.006,5.188,0.015,10.375,0.02,15.563c2.258-7.432,3.301-12.646,3.987-19.924
										C108.695,149.427,108.276,149.968,105.668,151.874"/>
									<path fill="#2F317C" d="M97.348,155.707c4.184-1.523,5.27-1.983,8.32-3.833c-0.007-5.188-0.015-10.375-0.021-15.562
										C103.275,143.549,101.103,148.625,97.348,155.707"/>
									<path fill="#F3CD13" d="M105.647,136.312c0.007,5.188,0.013,10.375,0.021,15.562c2.438-1.806,3.002-2.335,4.007-4.36
										C108.966,143.484,107.912,140.553,105.647,136.312"/>
									<path fill="#37AE4A" d="M97.348,155.707c3.866,4.592,6.049,7.662,8.34,11.73c-0.006-5.188-0.015-10.376-0.02-15.563
										C102.759,153.618,101.801,154.1,97.348,155.707"/>
									<path fill="#00A4C4" d="M5.904,150.643c0.006,5.194,0.013,10.389,0.018,15.582c1.781-3.784,3.745-6.873,7.246-11.395
										C9.353,153.164,8.389,152.662,5.904,150.643"/>
									<path fill="#2F317C" d="M3.599,146.326l0-0.801c0.059-2.65,0.29-5.864,2.288-10.465c0.006,5.194,0.012,10.389,0.017,15.582
										C4.526,149.165,3.694,148.273,3.599,146.326"/>
									<path fill="#F3CD13" d="M5.887,135.061c0.006,5.194,0.012,10.389,0.017,15.582c2.378,1.903,3.198,2.43,7.264,4.188
										C10.2,148.561,7.947,143.066,5.887,135.061"/>
									<path fill="#37AE4A" d="M3.599,147.125v-0.799c0.238,1.675,0.327,2.302,2.305,4.316c0.006,5.194,0.013,10.389,0.018,15.582
										C5.118,162.775,3.623,156.354,3.599,147.125"/>
									<path fill="#37AE4A" d="M85.206,158.722c0.012,5.188,0.024,10.378,0.037,15.567c5.137-6.812,8.305-11.674,12.105-18.582
										C92.699,157.155,91.261,157.541,85.206,158.722"/>
									<path fill="#F3CD13" d="M69.832,160.621c6.93-0.6,8.855-0.812,15.375-1.899c-0.013-5.188-0.024-10.378-0.037-15.566
										C79.544,150.38,76.015,154.197,69.832,160.621"/>
									<path fill="#00A4C4" d="M85.169,143.155c0.012,5.188,0.024,10.378,0.037,15.566c5.703-1.122,7.247-1.476,12.142-3.015
										C93.592,151.381,90.405,148.096,85.169,143.155"/>
									<path fill="#2F317C" d="M69.832,160.621c12.582,11.031,12.582,11.031,15.411,13.668
										c-0.012-5.189-0.026-10.379-0.037-15.567C79.027,159.742,77.176,159.996,69.832,160.621"/>
									<path fill="#F3CD13" d="M24.222,158.062c0.012,5.192,0.024,10.385,0.035,15.578c3.594-3.655,6.712-6.738,13.779-13.444
										C31.785,159.471,30.052,159.228,24.222,158.062"/>
									<path fill="#37AE4A" d="M13.167,154.83c4.161,1.531,5.463,1.943,11.055,3.232c-0.011-5.193-0.023-10.385-0.034-15.578
										C19.288,147.538,16.404,150.769,13.167,154.83"/>
									<path fill="#2F317C" d="M24.188,142.484c0.012,5.193,0.024,10.385,0.034,15.578c5.527,1.094,7.188,1.375,13.813,2.134
										C32.303,153.543,28.68,148.908,24.188,142.484"/>
									<path fill="#00A4C4" d="M13.167,154.83c2.954,5.958,5.716,10.946,11.089,18.811c-0.012-5.193-0.024-10.386-0.035-15.578
										C18.959,156.838,17.546,156.457,13.167,154.83"/>
								</g>
							</g>
						</g>
					</g>
				</g>
			</g>
		</g>
	</g>
	<g id="Tshirt_2_" display="none">
		<g display="inline">
			<path fill="#FFFFFF" d="M48.701,94.971c0.47,0.158,0.934,0.318,1.398,0.479c0,27.391,0,54.777,0,82.244
				c34.171,0,67.451,0,101.852,0c0-27.537,0-54.363,0-82.729c4.852,5.281,8.607,9.367,12.489,13.588
				c10.177-7.918,19.813-15.416,29.899-23.264c-11.965-13.609-23.27-27.043-35.329-39.756c-2.893-3.049-8.158-4.562-12.574-5.262
				c-5.585-0.879-11.431-0.449-17.13-0.068c-1.804,0.119-4.177,1.453-5.146,2.967c-11.999,18.768-34.67,18.873-46.579,0.209
				c-0.984-1.549-3.218-2.967-5.036-3.211c-17.16-2.283-32.106,1.084-41.684,17.27c-0.51,0.859-1.363,1.514-2.028,2.287
				c-7.394,8.604-14.777,17.211-22.315,25.994c10.301,7.957,19.938,15.406,29.939,23.135
				C40.777,103.957,44.739,99.461,48.701,94.971z"/>
		</g>
		<g display="inline">
			<rect x="100.429" y="74.3" fill="#36AE4A" width="38.866" height="38.865"/>
			<polygon fill="#F3CD13" points="100.429,74.132 139.211,112.882 139.211,74.132 			"/>
			<polyline fill="#00A4C4" points="139.211,74.132 119.862,113.165 139.211,113.165 			"/>
			<polyline fill="#E01173" points="139.211,74.132 126.365,100.046 139.211,113.165 			"/>
		</g>
	</g>
	<g id="postcards_2_">
		
			<rect x="48.8" y="73.995" transform="matrix(0.9397 -0.342 0.342 0.9397 -31.1262 40.4708)" fill="#FFFFFF" width="100.794" height="69.005"/>
		
			<rect x="48.8" y="73.995" transform="matrix(0.766 -0.6428 0.6428 0.766 -46.5332 89.1456)" fill="#FFFFFF" width="100.793" height="69.005"/>
		
			<rect x="48.8" y="73.995" transform="matrix(0.5 -0.866 0.866 0.5 -44.3636 140.1544)" fill="#FFFFFF" width="100.793" height="69.005"/>
		<rect x="48.8" y="73.995" fill="#FFFFFF" width="100.794" height="69.005"/>
		<g>
			<rect x="116.485" y="80.008" fill="#36AE4A" width="20.746" height="20.746"/>
			<polygon fill="#F3CD13" points="116.485,79.918 137.187,100.603 137.187,79.918 			"/>
			<polyline fill="#00A4C4" points="137.187,79.918 126.858,100.754 137.187,100.754 			"/>
			<polyline fill="#E01173" points="137.187,79.918 130.329,93.751 137.187,100.754 			"/>
		</g>
		<line fill="none" stroke="#E01173" stroke-miterlimit="10" x1="62.287" y1="98.332" x2="108.787" y2="98.332"/>
		<line fill="none" stroke="#E01173" stroke-miterlimit="10" x1="62.287" y1="106.754" x2="108.787" y2="106.754"/>
		<line fill="none" stroke="#E01173" stroke-miterlimit="10" x1="62.287" y1="115.176" x2="108.787" y2="115.176"/>
		<line fill="none" stroke="#E01173" stroke-miterlimit="10" x1="62.287" y1="123.598" x2="108.787" y2="123.598"/>
		<line fill="none" stroke="#E01173" stroke-miterlimit="10" x1="62.287" y1="132.02" x2="108.787" y2="132.02"/>
	</g>
</g>
</svg>
