<?xml version="1.0" encoding="utf-8"?>
<!-- Generator: Adobe Illustrator 16.0.0, SVG Export Plug-In . SVG Version: 6.00 Build 0)  -->
<!DOCTYPE svg PUBLIC "-//W3C//DTD SVG 1.1//EN" "http://www.w3.org/Graphics/SVG/1.1/DTD/svg11.dtd">
<svg version="1.1" id="Layer_1" xmlns="http://www.w3.org/2000/svg" xmlns:xlink="http://www.w3.org/1999/xlink" x="0px" y="0px"
	 width="1157.268px" height="637.818px" viewBox="0 0 1157.268 637.818" enable-background="new 0 0 1157.268 637.818"
	 xml:space="preserve">
<g id="_x31__1_">
</g>
<g id="_x32__1_">
</g>
<g id="_x33__1_">
</g>
<g id="_x31_">
</g>
<g id="有灵且美">
	<g id="bright_x26_beautiful" display="none">
	</g>
</g>
<g id="_x32_">
</g>
<g id="_x32_-0">
	<g id="kite">
	</g>
</g>
<g id="_x32_-1">
	<g id="kite_snap_1_">
	</g>
</g>
<g id="_x33_">
	<g id="accidents">
	</g>
	<g id="child_labor">
	</g>
	<g id="prosititution">
	</g>
	<g id="dropout">
	</g>
	<g id="loneliness">
	</g>
	<g id="hand">
		<g id="Layer_19">
		</g>
	</g>
</g>
<g id="_x34_">
	<g id="Layer_23">
	</g>
	<g id="pulsera">
	</g>
</g>
<g id="nav">
</g>
<g id="_x35_">
	<g id="friends">
	</g>
</g>
<g id="_x36_">
	<g id="others" display="none">
	</g>
</g>
<g id="artboard-2">
</g>
<g id="artboard-3">
</g>
<g id="artboard-4">
</g>
<g id="artboard-5">
</g>
<g id="artboard-6">
</g>
<g id="artboard-7" display="none">
</g>
<g id="artboard-8">
	<g>
		<g>
			<path fill="#07914B" d="M492.655,345.848C449.829,231.132,326.52,139.448,172.223,121.304
				C15.454,102.87-127.8,165.679-194.79,270.267l-20.016,170.22l548.15,64.457L492.655,345.848z"/>
		</g>
		<g>
			<path fill="#36AE4A" d="M260.634,273.373C182.12,120.459-4.827,12.85-222.921,12.85c-221.584,0-411.012,111.053-487.262,267.85
				v240.6H64.606L260.634,273.373z"/>
		</g>
		<g>
			<path fill="#07914B" d="M1867.45,334.289C1817.557,143.366,1607.319,0,1355.585,0c-221.586,0-411.012,111.053-487.262,267.85
				v240.6h999.127V334.289z"/>
		</g>
		<path fill="#D6D6D6" d="M713.089,124.887c-1.713,7.335-7.738,12.536-14.766,13.555c0.483,1.509,0.578,3.163,0.19,4.818
			c-1.139,4.871-6.012,7.897-10.881,6.759c-1.08-0.252-2.067-0.688-2.94-1.267l-14.691,11.109l2.613-60.018
			c0.168-0.722,0.401-1.409,0.694-2.062c0.056-0.84,0.179-1.688,0.377-2.532c1.962-8.394,10.359-13.608,18.753-11.647
			c8.393,1.961,13.608,10.359,11.646,18.751c-0.191,0.831-0.451,1.628-0.764,2.394C710.774,108.229,715.034,116.562,713.089,124.887
			z"/>
		<path fill="#D6D6D6" d="M754.755,185.434c-0.565,3.077,0.865,6.058,3.371,7.613c-0.434,0.494-0.744,1.109-0.873,1.804
			c-0.375,2.044,0.978,4.006,3.021,4.381c0.452,0.084,0.899,0.082,1.329,0.007l3.748,6.669l8.978-23.288
			c0.055-0.303,0.08-0.604,0.076-0.9c0.119-0.331,0.213-0.673,0.276-1.027c0.648-3.521-1.686-6.902-5.207-7.55
			c-3.521-0.648-6.901,1.684-7.549,5.206c-0.063,0.347-0.098,0.694-0.106,1.037C758.403,179.473,755.396,181.938,754.755,185.434z"
			/>
		<g id="city_1_">
			<polygon fill="#6D6C6D" points="561.479,236.992 517.64,234.818 516.06,180.786 559.896,182.959 			"/>
			<polygon fill="#6D6C6D" points="588.093,237.279 563.919,235.879 563.429,206.112 587.604,207.51 			"/>
			<polygon fill="#6D6C6D" points="609.743,238.522 581.431,236.486 581.61,201.675 609.921,203.707 			"/>
			<polygon fill="#6D6C6D" points="616.509,237.095 655.044,236.436 656.63,189.398 618.097,190.057 			"/>
			
				<rect x="662.937" y="164.955" transform="matrix(-0.9988 -0.0483 0.0483 -0.9988 1343.8959 433.5546)" fill="#6D6C6D" width="28.499" height="71.172"/>
			
				<rect x="667.787" y="159.554" transform="matrix(-0.9996 -0.0282 0.0282 -0.9996 1337.8865 354.6388)" fill="#6D6C6D" width="7.311" height="16.674"/>
			<polygon fill="#6D6C6D" points="735.126,241.265 698.759,236.293 707.069,192.247 743.438,197.218 			"/>
			<polygon fill="#6D6C6D" points="758.396,245.153 730.401,240.473 738.435,206.595 766.433,211.275 			"/>
			<polygon fill="#6D6C6D" points="765.749,213.737 757.771,212.403 760.062,202.75 768.038,204.084 			"/>
			<polygon fill="#6D6C6D" points="783.814,250.355 764.712,246.864 770.765,223.757 789.866,227.245 			"/>
			<polygon fill="#6D6C6D" points="514.239,223.922 495.118,227.317 492.726,203.551 511.845,200.152 			"/>
		</g>
		<g>
			<path fill="#7FC673" d="M1309.388,493.15c-76.112-158.595-396.836-277.683-780.862-277.683
				c-338.033,0-627.01,92.248-743.331,222.492v199.857h1524.193V493.15z"/>
		</g>
		<polygon display="none" fill="#D6D6D6" points="516.606,261.592 608.163,218.874 564.003,266.311 		"/>
		<polygon display="none" fill="#D6D6D6" points="235.606,637.818 516.606,261.592 564.003,266.311 755.606,637.818 		"/>
	</g>
</g>
</svg>
